<svg xmlns="http://www.w3.org/2000/svg" width="73.244" height="111.661" viewBox="0 0 73.244 111.661"><defs><style>.a{fill:#fff;}.b{fill:none;stroke:#fff;stroke-width:2px;}</style></defs><g transform="translate(-1395.013 -2397.779)"><path class="a" d="M55.7,6.723H40.449V5.042A5.048,5.048,0,0,0,35.407,0H21.961a5.048,5.048,0,0,0-5.042,5.042V6.723H1.681A1.685,1.685,0,0,0,0,8.4V45.379a5.048,5.048,0,0,0,5.042,5.042H52.326a5.048,5.048,0,0,0,5.042-5.042V8.432A1.632,1.632,0,0,0,55.7,6.723ZM20.28,5.042a1.683,1.683,0,0,1,1.681-1.681H35.407a1.683,1.683,0,0,1,1.681,1.681V6.723H20.28Zm33.075,5.042L48.136,25.742a1.678,1.678,0,0,1-1.594,1.149H37.087V25.21a1.681,1.681,0,0,0-1.681-1.681H21.961A1.681,1.681,0,0,0,20.28,25.21v1.681H10.826a1.678,1.678,0,0,1-1.594-1.149L4.013,10.084ZM33.726,26.891v3.361H23.642V26.891Zm20.28,18.488a1.683,1.683,0,0,1-1.681,1.681H5.042a1.683,1.683,0,0,1-1.681-1.681V18.76L6.043,26.8a5.035,5.035,0,0,0,4.783,3.448H20.28v1.681a1.681,1.681,0,0,0,1.681,1.681H35.407a1.681,1.681,0,0,0,1.681-1.681V30.252h9.454A5.035,5.035,0,0,0,51.325,26.8l2.682-8.045Zm0,0" transform="translate(1411.943 2397.779) rotate(11)"/><path class="b" d="M31.98,13.546S48.71,29.23,44.955,36.488s12.03,16.259,12.03,16.259" transform="matrix(0.438, 0.899, -0.899, 0.438, 1429.482, 2434.273)"/></g></svg>