<svg xmlns="http://www.w3.org/2000/svg" width="198.459" height="182.164" viewBox="0 0 198.459 182.164"><defs><style>.a{fill:#fff;}.b{fill:none;stroke:#fff;stroke-width:2px;}</style></defs><g transform="translate(-1516.022 -2424.781)"><g transform="matrix(0.819, 0.574, -0.574, 0.819, 1660.674, 2424.172)"><g transform="translate(0 25.478)"><path class="a" d="M66.815,232.717H60.379V193.371a1,1,0,0,0-1-1H48.767a1,1,0,0,0-1,1v39.346H40.208V205.049a1,1,0,0,0-1-1H28.6a1,1,0,0,0-1,1v27.668H20.038v-22.36a1,1,0,0,0-1-1H8.427a1,1,0,0,0-1,1v22.36H1a1,1,0,1,0,0,1.991H66.815a1,1,0,1,0,0-1.99Zm-48.767,0H9.422V211.352h8.625v21.365Zm20.171,0H29.592V206.044h8.625Zm20.17,0H49.763v-38.35h8.626v38.35Z" transform="translate(0 -192.376)"/></g><g transform="translate(1.062 0)"><path class="a" d="M71.588.78A3.117,3.117,0,0,0,69.137.024L60.644,1.086a3.118,3.118,0,0,0,.774,6.189l.693-.086A75.273,75.273,0,0,1,30.538,28.659a71.992,71.992,0,0,1-19.5,4.252,3.118,3.118,0,0,0,.1,6.235h.1a76.279,76.279,0,0,0,21.255-4.559,83.638,83.638,0,0,0,18.66-9.381,1,1,0,0,0-1.112-1.651,81.632,81.632,0,0,1-18.216,9.157A74.092,74.092,0,0,1,11.17,37.155h-.036A1.128,1.128,0,0,1,11.1,34.9,73.559,73.559,0,0,0,31.21,30.533,77,77,0,0,0,65.264,6.511a1,1,0,0,0-.9-1.611l-3.193.4a1.128,1.128,0,1,1-.28-2.239L69.384,2a1.139,1.139,0,0,1,1.268,1.119v8.493a1.128,1.128,0,0,1-2.256,0V9.036a1,1,0,0,0-1.766-.629,76.951,76.951,0,0,1-12.58,12.25,1,1,0,0,0,1.216,1.576A78.88,78.88,0,0,0,66.408,11.751a3.119,3.119,0,0,0,6.234-.14V3.118A3.121,3.121,0,0,0,71.588.78Z" transform="translate(-8.017 0)"/></g></g><path class="b" d="M.055,90.461S-2.22,37.508,22.436,53.733,50.791,0,50.791,0" transform="matrix(-0.839, -0.545, 0.545, -0.839, 1559.842, 2605.779)"/></g></svg>