<svg xmlns="http://www.w3.org/2000/svg" xmlns:xlink="http://www.w3.org/1999/xlink" width="127.07" height="118.006" viewBox="0 0 127.07 118.006"><defs><style>.a{mix-blend-mode:luminosity;isolation:isolate;}.b{fill:#fff;}.c{fill:#1565c0;}.d{fill:#ffc107;}.e{filter:url(#a);}</style><filter id="a" x="0" y="0" width="127.07" height="118.006" filterUnits="userSpaceOnUse"><feOffset dy="3" input="SourceAlpha"/><feGaussianBlur stdDeviation="3" result="b"/><feFlood flood-opacity="0.161"/><feComposite operator="in" in2="b"/><feComposite in="SourceGraphic"/></filter></defs><g class="a" transform="matrix(0.999, 0.035, -0.035, 0.999, 17.866, 6.466)"><g class="e" transform="matrix(1, -0.03, 0.03, 1, -18.08, -5.84)"><path class="b" d="M9,0H88a8.94,8.94,0,0,1,9,8.88l5.433,78.614A8.965,8.965,0,0,1,100,93.568a8.868,8.868,0,0,1-6.565,2.805L5.662,96.2A9.233,9.233,0,0,1-.257,94.008a8.661,8.661,0,0,1-3.081-6.689L0,8.88A8.94,8.94,0,0,1,9,0Z" transform="matrix(1, 0.03, -0.03, 1, 15.7, 6.12)"/></g><g transform="translate(25.972 31.187)"><path class="c" d="M47.207,36.366A4.21,4.21,0,0,1,43,40.577H7.21A4.21,4.21,0,0,1,3,36.366V13.21A4.21,4.21,0,0,1,7.21,9H43a4.21,4.21,0,0,1,4.21,4.21Z" transform="translate(-3 -9)"/><path class="b" d="M15.557,19l-2.764,8.244s-.7-3.487-.772-3.925c-1.574-3.59-3.9-3.39-3.9-3.39l2.737,10.65v0H14.19L18.79,19Zm2.635,11.578h3.022L23.041,19h-3.06ZM39.578,19H36.4L31.441,30.578h3l.619-1.654h3.785l.322,1.654h2.75ZM35.9,26.713l1.645-4.375.861,4.375Zm-8.572-4.339c0-.638.524-1.113,2.027-1.113a4.769,4.769,0,0,1,2.1.709l.49-2.43A9.225,9.225,0,0,0,29.109,19c-3.178,0-4.816,1.52-4.816,3.444,0,3.48,4.188,3,4.188,4.79,0,.306-.243,1.015-1.987,1.015a6.47,6.47,0,0,1-2.9-.641l-.521,2.332a7.1,7.1,0,0,0,3.281.638c2.167,0,5.173-1.621,5.173-3.949C31.522,23.827,27.328,23.625,27.328,22.375Z" transform="translate(-2.731 -8.474)"/><path class="d" d="M12.579,25.249l-1.017-5a1.867,1.867,0,0,0-1.656-1.083H5.233S11.192,20.928,12.579,25.249Z" transform="translate(-2.883 -8.466)"/></g></g></svg>