<svg xmlns="http://www.w3.org/2000/svg" width="167.247" height="116.311" viewBox="0 0 167.247 116.311"><defs><style>.a{fill:#fff;}.b{fill:none;stroke:#fff;stroke-width:2px;}</style></defs><g transform="translate(-712.176 -2558.736)"><g transform="matrix(0.966, 0.259, -0.259, 0.966, 813.972, 2558.736)"><path class="a" d="M307.83,322.8a8.651,8.651,0,0,0,8.641-8.641V308.73a3.248,3.248,0,1,0-2.074,0v5.427a6.567,6.567,0,0,1-13.134,0V308.73a3.248,3.248,0,1,0-2.074,0v5.427A8.651,8.651,0,0,0,307.83,322.8Zm7.6-18.319a1.174,1.174,0,1,1-1.174,1.174A1.175,1.175,0,0,1,315.433,304.48Zm-15.208,0a1.174,1.174,0,1,1-1.174,1.174A1.175,1.175,0,0,1,300.226,304.48Z" transform="translate(-257.432 -260.599)"/><path class="a" d="M14.541,70.78H76.018a2.667,2.667,0,0,0,2.65-2.956l-1.21-11.046A1.037,1.037,0,1,0,75.4,57l1.21,11.046a.592.592,0,0,1-.589.657H46.625a.592.592,0,0,1-.589-.657l2.99-27.286a.591.591,0,0,1,.589-.528H73.028a.592.592,0,0,1,.589.528l1.249,11.4a1.037,1.037,0,1,0,2.061-.226l-1.249-11.4a2.662,2.662,0,0,0-2.65-2.375H61.557l-1.6-14.611a3.612,3.612,0,0,0-3.6-3.223H52.235V14.416a14.416,14.416,0,0,0-28.833,0v5.912H19.277a3.612,3.612,0,0,0-3.6,3.223L10.946,66.769A3.619,3.619,0,0,0,14.541,70.78ZM13.007,67l4.736-43.218A1.542,1.542,0,0,1,19.278,22.4H23.4v3.861a3.374,3.374,0,1,0,2.074,0V22.4H35.4a1.037,1.037,0,1,0,0-2.074H25.476V14.416a12.343,12.343,0,0,1,24.685,0v5.912H40.238a1.037,1.037,0,1,0,0,2.074h9.923v3.861a3.374,3.374,0,1,0,2.074,0V22.4H56.36a1.541,1.541,0,0,1,1.534,1.375l1.576,14.385H49.615a2.662,2.662,0,0,0-2.65,2.375l-2.99,27.286a2.831,2.831,0,0,0,.051.882H14.541A1.542,1.542,0,0,1,13.007,67ZM24.439,28.173a1.3,1.3,0,1,1-1.3,1.3A1.3,1.3,0,0,1,24.439,28.173Zm26.759,0a1.3,1.3,0,1,1-1.3,1.3A1.3,1.3,0,0,1,51.2,28.173Z" transform="translate(-10.924 0)"/></g><path class="b" d="M22.659-8.473S20.751,35.914,41.419,22.314,65.188,67.355,65.188,67.355" transform="matrix(-0.07, 0.998, -0.998, -0.07, 784.037, 2608.428)"/></g></svg>