<svg xmlns="http://www.w3.org/2000/svg" width="79.765" height="134.44" viewBox="0 0 79.765 134.44"><defs><style>.a{fill:#fff;}.b{fill:none;stroke:#fff;stroke-width:2px;}</style></defs><g transform="translate(-512.013 -2487)"><g transform="translate(518.43 2487)"><path class="a" d="M73.551,287.219V280.76h-6.89v-4.306h-2.3v-3.589h2.3v-6.459H49.488v2.153h15.02v2.153H19.96v2.153H62.211v3.589H15.346a1.794,1.794,0,0,1,0-3.589h2.461v-2.153H15.346a3.947,3.947,0,1,0,0,7.895H64.508v2.153H27.4v2.153H71.4v2.153H10.609a6.1,6.1,0,0,0,0,12.2h50.71v-2.153H10.61a3.947,3.947,0,1,1,0-7.895H69.1v3.588H21.375v2.153H69.1v2.153H63.473v2.153H71.4v2.153H10.61a8.253,8.253,0,0,1,0-16.507H25.25V280.76h-9.9a6.1,6.1,0,1,1,0-12.2H47.335v-2.153H15.346A8.249,8.249,0,0,0,9.83,280.792a10.4,10.4,0,0,0,.78,20.781H73.551v-6.459h-2.3v-7.895Z" transform="translate(-0.203 -228.167)"/><path class="a" d="M117.7,436.406h2.153v2.153H117.7Z" transform="translate(-100.837 -373.765)"/><path class="a" d="M64.361,32l.479.32c.187.125,4.712,3.052,16.386,3.052s16.2-2.927,16.386-3.052l.479-.32V13.872l6.459-2.153V21.883a3.954,3.954,0,0,0-2.871,3.8v5.383h7.895V25.68a3.954,3.954,0,0,0-2.871-3.8V11l3.763-1.254L99.162,5.978l-.681,2.043,5.178,1.726L81.227,17.225,58.795,9.747,81.227,2.27,96.439,7.34,97.12,5.3,81.227,0,51.986,9.747l12.375,4.125Zm43.062-6.318v3.23h-3.588V25.68a1.794,1.794,0,0,1,3.588,0ZM66.515,14.59l14.713,4.9,14.713-4.9v8.434H93.284v2.153H95.94v2.153H91.275v2.153H95.94v1.3c-1.387.676-5.851,2.434-14.713,2.434S67.9,31.454,66.515,30.782Z" transform="translate(-44.553 0)"/><path class="a" d="M87.7,436.406h2.153v2.153H87.7Z" transform="translate(-75.143 -373.765)"/><path class="a" d="M295.7,190.406h2.153v2.153H295.7Z" transform="translate(-253.287 -163.075)"/></g><path class="b" d="M31.98,13.546S48.71,29.23,44.955,36.488s12.03,16.259,12.03,16.259" transform="matrix(0.438, 0.899, -0.899, 0.438, 546.482, 2546.273)"/></g></svg>