<svg xmlns="http://www.w3.org/2000/svg" width="177.775" height="159.544" viewBox="0 0 177.775 159.544"><defs><style>.a{fill:#fff;}.b{fill:none;stroke:#fff;stroke-width:2px;}</style></defs><g transform="translate(-1125.201 -2446.85)"><path class="a" d="M64.238,22.275c-.106-1.832-2.285-3.264-6.643-4.356a2.414,2.414,0,0,0,.23-1V9.425h-.018C57.423,3.184,31.849,3,28.912,3S.4,3.184.018,9.425H0v.139H0V16.92c.005,2.035,2.631,3.627,6.537,4.812a2.349,2.349,0,0,0-.1.543H6.425v.139h0v7.343c-4.208,1.084-6.31,2.5-6.414,4.3H0v.139H0v7.355c0,1.417,1.281,2.618,3.371,3.619a2.359,2.359,0,0,0-.142.666H3.212v.139h0v7.355c.009,3.562,8.028,5.773,16.938,6.805a.982.982,0,0,0,.195.04c.02,0,.037-.011.058-.012,1.718.194,3.463.345,5.19.453a.885.885,0,0,0,.106.021c.02,0,.036-.011.056-.012,2.193.133,4.351.2,6.369.2s4.176-.067,6.369-.2c.019,0,.036.012.056.012.037,0,.07-.018.106-.021,1.727-.108,3.473-.258,5.19-.453.02,0,.037.011.058.011a.983.983,0,0,0,.195-.04c8.91-1.032,16.929-3.245,16.938-6.807V45.833H61.02c-.075-1.313-1.194-2.408-3.4-3.324a2.394,2.394,0,0,0,.209-.964v-7c3.844-1.182,6.42-2.764,6.425-4.78V22.275Zm-8.67,19.619-.365.32a9.58,9.58,0,0,1-2.732,1.478V38.586a15.935,15.935,0,0,0,3.212-1.473v4.431A.681.681,0,0,1,55.567,41.893Zm-23.95,4.976c-.156,0-.314.006-.471.01-.382.007-.774.01-1.162.013V41.543q.442,0,.883-.013l.17,0q1.617-.031,3.23-.1v5.347q-.344.018-.692.032C32.931,46.832,32.28,46.853,31.617,46.869Zm-4.676.015q-.736-.013-1.464-.035l-.18-.006q-.875-.029-1.738-.072V41.425q1.609.075,3.23.1l.169,0q.442.008.883.013V46.9c-.208,0-.415,0-.622-.005C27.125,46.889,27.034,46.886,26.941,46.884ZM7.6,44.443l-.1-.03V39.24c1,.27,2.075.516,3.212.74v5.227q-1.475-.313-2.716-.653C7.862,44.516,7.727,44.48,7.6,44.443ZM30.17,53.31q.442.008.883.013v5.353q-2.22-.021-4.283-.124V53.206q1.609.075,3.23.1Zm4.079,0q1.617-.031,3.23-.1v5.347q-2.062.1-4.283.124V53.322q.442,0,.883-.013Zm8.584-.484v5.318q-1.544.162-3.212.282v-5.34C40.706,53.012,41.779,52.925,42.833,52.823Zm2.142-.231q1.656-.2,3.212-.452V57.4q-1.513.267-3.212.49Zm5.354-.834c1.137-.224,2.212-.47,3.212-.74v5.173c-.954.275-2.028.542-3.212.793Zm-36.408,0v5.227c-1.184-.252-2.258-.518-3.212-.793V51.018C11.708,51.288,12.783,51.535,13.921,51.758Zm2.142.383q1.555.252,3.212.452v5.3q-1.7-.223-3.212-.49Zm5.354.682c1.054.1,2.127.188,3.212.26v5.34q-1.669-.117-3.212-.282Zm-2.657-6.4-.326-.033-.23-.025V41.045c1.054.1,2.127.188,3.212.26v5.336C20.517,46.577,19.628,46.5,18.76,46.42Zm-2.7-5.607v5.3q-1.7-.223-3.212-.49V40.361Q14.4,40.613,16.062,40.813Zm21.059,5.778-.713.054V41.3c1.086-.072,2.159-.157,3.212-.26v5.318c-.662.07-1.339.135-2.033.192C37.432,46.567,37.276,46.579,37.121,46.591Zm4.641-.482v-5.3q1.656-.2,3.212-.452v5.258Q43.461,45.885,41.762,46.109Zm5.354-6.13c1.137-.224,2.212-.47,3.212-.74v5.173c-.954.275-2.028.542-3.212.793ZM32.473,35.087c-.805-.02-1.592-.051-2.365-.089l-.124-.005V29.646q1.609.075,3.23.1l.169,0q.442.008.883.013v5.347c-.521-.005-1.047-.007-1.556-.019ZM7.5,19.784V14.611c1,.27,2.075.516,3.212.74v5.227l-.4-.084c-.57-.125-1.125-.256-1.657-.394C8.251,20,7.866,19.89,7.5,19.784ZM26.958,16.9q.442.008.883.013v5.347c-1.441-.014-2.874-.051-4.283-.122V16.8q1.609.075,3.23.1Zm4.079,0q1.617-.031,3.23-.1v5.342c-.182.009-.357.021-.54.03l-.046,0c-.719.032-1.451.056-2.193.073l-.347.007c-.381.007-.771.009-1.158.013V16.915q.442,0,.883-.013Zm24.4.538-.03-.006-.39.3a10.415,10.415,0,0,1-2.547,1.316V13.956a15.935,15.935,0,0,0,3.212-1.473v4.431A.841.841,0,0,1,55.438,17.437ZM41.762,21.474v-5.29q1.656-.2,3.212-.452v5.249C43.959,21.161,42.891,21.326,41.762,21.474Zm5.354-.9V15.351c1.137-.224,2.212-.47,3.212-.74v5.161C49.369,20.052,48.289,20.318,47.116,20.569Zm-7.5-4.154v5.311q-1.552.164-3.212.284V16.675C37.494,16.6,38.567,16.517,39.62,16.415ZM18.2,21.729V16.415c1.054.1,2.127.188,3.212.26v5.331C20.326,21.928,19.251,21.839,18.2,21.729Zm-2.142-5.545v5.291c-.212-.028-.433-.05-.642-.079l-.4-.059q-.928-.133-1.817-.284l-.35-.062V15.733Q14.4,15.984,16.062,16.184ZM27.576,34.845l-.434-.032q-1.028-.08-2.008-.178l-.42-.043c-.029,0-.057-.007-.086-.01V29.265c1.054.1,2.127.188,3.212.26v5.337Zm-7.075-.8c-.424-.067-.822-.14-1.226-.211V28.583q1.555.252,3.212.452v5.3c-.655-.087-1.3-.177-1.912-.273Q20.538,34.05,20.5,34.045ZM17.133,28.2v5.218q-1.775-.381-3.212-.8V27.46C14.921,27.73,16,27.977,17.133,28.2Zm-5.354-1.394v5.087a6.68,6.68,0,0,1-3.123-1.9l-.072-.12a.677.677,0,0,1-.018-.1V25.332A15.936,15.936,0,0,0,11.779,26.805Zm25.683,2.944q1.617-.031,3.23-.1v5.341c-1.407.07-2.838.108-4.283.123V29.765q.442,0,.883-.013ZM51.3,33.858c-.47.081-.944.162-1.432.236-.279.043-.565.084-.852.124-.271.039-.553.072-.828.107V29.034q1.656-.2,3.212-.452V33.84Zm-7.251.914c-.4.033-.812.055-1.216.084V29.525c1.086-.072,2.159-.157,3.212-.26v5.312c-.622.065-1.243.131-1.883.184Zm12.237-2.008c-.533.149-1.1.288-1.674.424-.267.062-.539.124-.817.184-.082.018-.17.034-.254.052V28.2c1.137-.224,2.212-.47,3.212-.74v5.173ZM62.1,22.344c-.1.727-1.747,1.694-4.688,2.6h0a71.876,71.876,0,0,1-17.23,2.574c-.384.016-.768.032-1.16.045-.32.011-.641.02-.968.029-.887.019-1.786.033-2.713.033s-1.827-.014-2.713-.034c-.326-.007-.647-.018-.968-.029-.393-.012-.776-.029-1.16-.045a71.867,71.867,0,0,1-17.23-2.574h0c-2.918-.9-4.563-1.861-4.685-2.585A.251.251,0,0,1,8.6,22.3c.073.018.154.033.228.051.419.1.848.2,1.285.288,2.128.458,4.486.834,7,1.121.009,0,.015,0,.022,0h.005c1.711.195,3.487.348,5.309.456.014,0,.026.007.04.007s.013,0,.02,0q1.968.116,3.986.164c.823.02,1.632.031,2.419.031.562,0,1.138-.006,1.72-.017A82,82,0,0,0,50.641,21.92c.231-.065.457-.133.68-.2.136-.042.275-.082.407-.124.388-.124.759-.252,1.118-.384l.183-.071c.3-.115.594-.233.873-.354.08-.035.163-.07.241-.1.3-.134.584-.271.849-.413.12-.063.224-.128.336-.193.128-.074.257-.149.376-.225.067-.043.148-.084.212-.126C60.71,20.764,61.974,21.9,62.1,22.344ZM28.912,5.142c17.657,0,26.587,2.78,26.755,4.375-.13.724-1.773,1.68-4.684,2.58h0a71.876,71.876,0,0,1-17.23,2.574c-.384.016-.768.032-1.16.045-.32.011-.641.02-.968.029-.887.02-1.786.034-2.713.034s-1.827-.014-2.713-.034c-.326-.007-.647-.018-.968-.029-.393-.012-.776-.029-1.16-.045A71.867,71.867,0,0,1,6.841,12.1h0c-2.912-.9-4.554-1.856-4.684-2.58C2.325,7.922,11.255,5.142,28.912,5.142ZM2.142,16.916V12.482a15.935,15.935,0,0,0,3.212,1.473v5.127C3.271,18.3,2.144,17.519,2.142,16.916ZM7.329,31.736c.016.017.041.032.057.049,1.466,1.48,4.5,2.643,8.281,3.51l.267.06q.416.093.844.182A82.586,82.586,0,0,0,28.9,37.075h.012q2.175.127,4.447.169c.67.014,1.33.022,1.975.022.739,0,1.5-.009,2.268-.027,1.4-.029,2.781-.087,4.142-.166.005,0,.01,0,.015,0s.017-.005.027-.005A82.82,82.82,0,0,0,54.15,35.489a19.4,19.4,0,0,1-3.167,1.238h0a73.893,73.893,0,0,1-18.5,2.622c-.241.007-.479.016-.723.022-.262.006-.529.011-.8.016-.674.011-1.351.02-2.047.02-.927,0-1.827-.014-2.713-.034-.326-.007-.647-.018-.968-.029-.393-.012-.776-.029-1.16-.045a71.867,71.867,0,0,1-17.23-2.574h0c-2.945-.91-4.593-1.878-4.688-2.605C2.272,33.718,3.355,32.71,7.329,31.736Zm-5.187,9.81V37.111a15.935,15.935,0,0,0,3.212,1.473v5.107l-.611-.238-.013.013C3.049,42.769,2.144,42.085,2.142,41.545ZM5.354,53.324V48.89a15.935,15.935,0,0,0,3.212,1.473v5.127C6.484,54.71,5.356,53.927,5.354,53.324Zm50.329,2.166V50.365A15.936,15.936,0,0,0,58.9,48.891v4.431C58.894,53.925,57.766,54.709,55.683,55.491Zm3.2-9.575c-.117.725-1.762,1.687-4.686,2.59h0a71.876,71.876,0,0,1-17.23,2.574c-.384.016-.768.032-1.16.045-.32.011-.641.02-.968.029-.887.019-1.786.033-2.713.033s-1.828-.014-2.716-.034c-.322-.007-.64-.018-.958-.029-.4-.013-.781-.029-1.167-.045A71.876,71.876,0,0,1,10.054,48.5h0c-2.832-.875-4.469-1.8-4.674-2.522.319.111.65.22.989.326l.1.031q.434.133.888.258c.115.032.23.064.347.1.171.046.347.09.523.135a78.12,78.12,0,0,0,14.253,2.025h.009c1.66.1,3.355.16,5.068.18.456.009.909.013,1.354.013.59,0,1.194-.007,1.805-.018,1.562-.026,3.1-.084,4.612-.173l.009,0c.005,0,.009,0,.014,0,1.836-.11,3.614-.268,5.322-.464.006,0,.012,0,.018,0,.024,0,.043-.012.066-.014,1.9-.22,3.705-.489,5.379-.8.345-.063.684-.128,1.02-.2l.225-.046A28.773,28.773,0,0,0,55.16,44.8c.1-.056.2-.114.3-.17.119-.071.232-.142.343-.215s.222-.131.316-.2C58.229,44.972,58.812,45.647,58.881,45.915ZM58.9,31.933V26.807a15.935,15.935,0,0,0,3.212-1.473v4.431C62.107,30.367,60.978,31.151,58.9,31.933Z" transform="matrix(0.829, -0.559, 0.559, 0.829, 1123.523, 2480.291)"/><path class="b" d="M22.668-8.473S20.392,44.479,45.049,28.255,73.4,81.987,73.4,81.987" transform="translate(1195.895 2549.334) rotate(-33)"/></g></svg>