<svg xmlns="http://www.w3.org/2000/svg" xmlns:xlink="http://www.w3.org/1999/xlink" width="127.706" height="126.084" viewBox="0 0 127.706 126.084"><defs><style>.a{mix-blend-mode:luminosity;isolation:isolate;}.b{fill:#fff;}.c{fill:#ff9800;}.d{fill:#d50000;}.e{fill:#ff3d00;}.f{filter:url(#a);}</style><filter id="a" x="0" y="0" width="127.706" height="126.084" filterUnits="userSpaceOnUse"><feOffset dy="3" input="SourceAlpha"/><feGaussianBlur stdDeviation="3" result="b"/><feFlood flood-opacity="0.161"/><feComposite operator="in" in2="b"/><feComposite in="SourceGraphic"/></filter></defs><g class="a" transform="translate(25.102 6.269) rotate(10)"><g class="f" transform="matrix(0.98, -0.17, 0.17, 0.98, -25.81, -1.82)"><rect class="b" width="95" height="93" rx="9" transform="translate(25.15 6) rotate(10)"/></g><g transform="translate(26.376 33.414)"><path class="c" d="M31.2,10A13.2,13.2,0,1,0,44.4,23.2,13.2,13.2,0,0,0,31.2,10Z" transform="translate(-2.914 -10)"/><path class="d" d="M15.2,10A13.2,13.2,0,1,0,28.4,23.2,13.2,13.2,0,0,0,15.2,10Z" transform="translate(-2 -10)"/><path class="e" d="M18,23.344a13.177,13.177,0,0,0,5.657,10.824,13.183,13.183,0,0,0,0-21.648A13.177,13.177,0,0,0,18,23.344Z" transform="translate(-2.914 -10.144)"/></g></g></svg>