<svg xmlns="http://www.w3.org/2000/svg" width="155.324" height="148.281" viewBox="0 0 155.324 148.281"><defs><style>.a{fill:#fff;}.b{fill:none;stroke:#fff;stroke-width:2px;}</style></defs><g transform="translate(-239.17 -2542.407)"><g transform="matrix(0.966, -0.259, 0.259, 0.966, 239.17, 2556.732)"><g transform="translate(0 0)"><path class="a" d="M54.9,43.715l-11.2-7.471a3.27,3.27,0,0,0-4.378.711l-3.263,4.2a1.4,1.4,0,0,1-1.788.376l-.621-.342c-2.058-1.122-4.618-2.518-9.777-7.679s-6.558-7.723-7.68-9.777l-.34-.621a1.4,1.4,0,0,1,.369-1.795l4.193-3.262a3.272,3.272,0,0,0,.712-4.378L13.65,2.47a3.253,3.253,0,0,0-4.385-.987L4.58,4.3A6.608,6.608,0,0,0,1.567,8.208C-.12,14.355,1.149,24.963,16.776,40.591,29.206,53.021,38.46,56.363,44.821,56.363a16.341,16.341,0,0,0,4.335-.566,6.6,6.6,0,0,0,3.911-3.013L55.884,48.1A3.253,3.253,0,0,0,54.9,43.715Zm-.6,3.44-2.81,4.685a4.767,4.767,0,0,1-2.813,2.18c-5.674,1.558-15.588.268-30.59-14.735S1.788,14.371,3.346,8.7A4.774,4.774,0,0,1,5.529,5.879l4.685-2.81a1.411,1.411,0,0,1,1.9.428L16.175,9.59,19.582,14.7a1.42,1.42,0,0,1-.308,1.9L15.08,19.861A3.228,3.228,0,0,0,14.225,24l.333.605c1.179,2.162,2.644,4.852,8,10.2s8.039,6.815,10.2,7.994l.606.334a3.228,3.228,0,0,0,4.143-.855l3.262-4.194a1.42,1.42,0,0,1,1.9-.308l11.2,7.471A1.41,1.41,0,0,1,54.294,47.156Z" transform="translate(-1 -1.018)"/><path class="a" d="M283.55,71.169a15.7,15.7,0,0,1,15.68,15.68.922.922,0,1,0,1.845,0A17.544,17.544,0,0,0,283.55,69.324a.922.922,0,0,0,0,1.845Z" transform="translate(-252.187 -61.941)"/><path class="a" d="M283.55,122.369A10.158,10.158,0,0,1,293.7,132.515a.922.922,0,0,0,1.845,0,12,12,0,0,0-11.991-11.991.922.922,0,0,0,0,1.845Z" transform="translate(-252.187 -107.607)"/><path class="a" d="M283.55,173.569a4.617,4.617,0,0,1,4.612,4.612.922.922,0,1,0,1.845,0,6.464,6.464,0,0,0-6.456-6.456.922.922,0,1,0,0,1.845Z" transform="translate(-252.187 -153.273)"/></g></g><path class="b" d="M0,0S17.429,38.8,38.874,24.689,63.535,71.422,63.535,71.422" transform="translate(309.406 2623.211) rotate(-20)"/></g></svg>