<svg xmlns="http://www.w3.org/2000/svg" width="35.12" height="28.525" viewBox="0 0 35.12 28.525"><defs><style>.a{fill:#2484c6;}</style></defs><path class="a" d="M31.51,10.49c.022.312.022.624.022.936,0,9.516-7.242,20.48-20.479,20.48A20.34,20.34,0,0,1,0,28.674a14.891,14.891,0,0,0,1.738.089,14.415,14.415,0,0,0,8.936-3.075A7.211,7.211,0,0,1,3.944,20.7a9.077,9.077,0,0,0,1.359.111A7.612,7.612,0,0,0,7.2,20.563,7.2,7.2,0,0,1,1.426,13.5v-.089a7.249,7.249,0,0,0,3.254.914A7.209,7.209,0,0,1,2.451,4.7a20.46,20.46,0,0,0,14.841,7.532,8.126,8.126,0,0,1-.178-1.649A7.2,7.2,0,0,1,29.571,5.654,14.171,14.171,0,0,0,34.14,3.916a7.179,7.179,0,0,1-3.164,3.967A14.429,14.429,0,0,0,35.12,6.768a15.473,15.473,0,0,1-3.61,3.722Z" transform="translate(0 -3.381)"/></svg>