<svg xmlns="http://www.w3.org/2000/svg" width="62.751" height="58.054" viewBox="0 0 62.751 58.054"><defs><style>.a{fill:#fff;}</style></defs><path class="a" d="M52.535,38.2c-6.274-.857-6.746-1.253-6.746-1.253C47.678,29.021,43.076,20.766,36.548,16c-8.7-6.339-21.91-1.735-32.2-11.372C1.945,2.38,3.338,29.846,16.225,40.254A25.027,25.027,0,0,0,39.781,44.28a13,13,0,0,0,4.687-3.63,39.623,39.623,0,0,0,7.509,1.521C53.746,42.363,54.642,38.487,52.535,38.2Zm-11.118.792c-9.411-2.495-17.6-8.673-22.9-13.513-.436-.4.194-.985.666-.642A76.671,76.671,0,0,0,42.591,36.388,3.76,3.76,0,0,1,41.417,38.99Z" transform="matrix(-0.914, 0.407, -0.407, -0.914, 67.665, 40.299)"/></svg>