<svg xmlns="http://www.w3.org/2000/svg" width="32.024" height="32.025" viewBox="0 0 32.024 32.025"><defs><style>.a{fill:none;stroke:#2484c6;stroke-linecap:round;stroke-linejoin:round;stroke-width:3.5px;}</style></defs><g transform="translate(1.75 1.75)"><path class="a" d="M10.131,3H24.393a7.131,7.131,0,0,1,7.131,7.131V24.394a7.131,7.131,0,0,1-7.131,7.131H10.131A7.131,7.131,0,0,1,3,24.394V10.131A7.131,7.131,0,0,1,10.131,3Z" transform="translate(-3 -3)"/><path class="a" d="M23.413,16.8A5.7,5.7,0,1,1,18.607,12,5.7,5.7,0,0,1,23.413,16.8Z" transform="translate(-3.446 -3.439)"/><path class="a" d="M26.25,9.75h0" transform="translate(-4.144 -3.332)"/></g></svg>