<svg xmlns="http://www.w3.org/2000/svg" xmlns:xlink="http://www.w3.org/1999/xlink" width="114" height="93" viewBox="0 0 114 93"><defs><style>.a{fill:none;}.b{clip-path:url(#a);}.c{fill:#2484c6;}</style><clipPath id="a"><rect class="a" width="114" height="93"/></clipPath></defs><g class="b"><g transform="translate(-922 -1292)"><circle class="c" cx="3" cy="3" r="3" transform="translate(922 1292)"/></g><g transform="translate(-907 -1292)"><circle class="c" cx="3" cy="3" r="3" transform="translate(922 1292)"/></g><g transform="translate(-892 -1292)"><circle class="c" cx="3" cy="3" r="3" transform="translate(922 1292)"/></g><g transform="translate(-877 -1292)"><circle class="c" cx="3" cy="3" r="3" transform="translate(922 1292)"/></g><g transform="translate(-862 -1292)"><circle class="c" cx="3" cy="3" r="3" transform="translate(922 1292)"/></g><g transform="translate(-847 -1292)"><circle class="c" cx="3" cy="3" r="3" transform="translate(922 1292)"/></g><g transform="translate(-832 -1292)"><circle class="c" cx="3" cy="3" r="3" transform="translate(922 1292)"/></g><g transform="translate(-817 -1292)"><circle class="c" cx="3" cy="3" r="3" transform="translate(922 1292)"/></g><g transform="translate(-922 -1276)"><circle class="c" cx="3" cy="3" r="3" transform="translate(922 1292)"/></g><g transform="translate(-907 -1276)"><circle class="c" cx="3" cy="3" r="3" transform="translate(922 1292)"/></g><g transform="translate(-892 -1276)"><circle class="c" cx="3" cy="3" r="3" transform="translate(922 1292)"/></g><g transform="translate(-877 -1276)"><circle class="c" cx="3" cy="3" r="3" transform="translate(922 1292)"/></g><g transform="translate(-862 -1276)"><circle class="c" cx="3" cy="3" r="3" transform="translate(922 1292)"/></g><g transform="translate(-847 -1276)"><circle class="c" cx="3" cy="3" r="3" transform="translate(922 1292)"/></g><g transform="translate(-832 -1276)"><circle class="c" cx="3" cy="3" r="3" transform="translate(922 1292)"/></g><g transform="translate(-817 -1276)"><circle class="c" cx="3" cy="3" r="3" transform="translate(922 1292)"/></g><g transform="translate(-922 -1260)"><circle class="c" cx="3" cy="3" r="3" transform="translate(922 1292)"/></g><g transform="translate(-907 -1260)"><circle class="c" cx="3" cy="3" r="3" transform="translate(922 1292)"/></g><g transform="translate(-892 -1260)"><circle class="c" cx="3" cy="3" r="3" transform="translate(922 1292)"/></g><g transform="translate(-877 -1260)"><circle class="c" cx="3" cy="3" r="3" transform="translate(922 1292)"/></g><g transform="translate(-862 -1260)"><circle class="c" cx="3" cy="3" r="3" transform="translate(922 1292)"/></g><g transform="translate(-847 -1260)"><circle class="c" cx="3" cy="3" r="3" transform="translate(922 1292)"/></g><g transform="translate(-832 -1260)"><circle class="c" cx="3" cy="3" r="3" transform="translate(922 1292)"/></g><g transform="translate(-817 -1260)"><circle class="c" cx="3" cy="3" r="3" transform="translate(922 1292)"/></g><g transform="translate(-922 -1244)"><circle class="c" cx="3" cy="3" r="3" transform="translate(922 1292)"/></g><g transform="translate(-907 -1244)"><circle class="c" cx="3" cy="3" r="3" transform="translate(922 1292)"/></g><g transform="translate(-892 -1244)"><circle class="c" cx="3" cy="3" r="3" transform="translate(922 1292)"/></g><g transform="translate(-877 -1244)"><circle class="c" cx="3" cy="3" r="3" transform="translate(922 1292)"/></g><g transform="translate(-862 -1244)"><circle class="c" cx="3" cy="3" r="3" transform="translate(922 1292)"/></g><g transform="translate(-847 -1244)"><circle class="c" cx="3" cy="3" r="3" transform="translate(922 1292)"/></g><g transform="translate(-832 -1244)"><circle class="c" cx="3" cy="3" r="3" transform="translate(922 1292)"/></g><g transform="translate(-817 -1244)"><circle class="c" cx="3" cy="3" r="3" transform="translate(922 1292)"/></g><g transform="translate(-922 -1228)"><circle class="c" cx="3" cy="3" r="3" transform="translate(922 1292)"/></g><g transform="translate(-907 -1228)"><circle class="c" cx="3" cy="3" r="3" transform="translate(922 1292)"/></g><g transform="translate(-892 -1228)"><circle class="c" cx="3" cy="3" r="3" transform="translate(922 1292)"/></g><g transform="translate(-877 -1228)"><circle class="c" cx="3" cy="3" r="3" transform="translate(922 1292)"/></g><g transform="translate(-862 -1228)"><circle class="c" cx="3" cy="3" r="3" transform="translate(922 1292)"/></g><g transform="translate(-847 -1228)"><circle class="c" cx="3" cy="3" r="3" transform="translate(922 1292)"/></g><g transform="translate(-832 -1228)"><circle class="c" cx="3" cy="3" r="3" transform="translate(922 1292)"/></g><g transform="translate(-817 -1228)"><circle class="c" cx="3" cy="3" r="3" transform="translate(922 1292)"/></g><g transform="translate(-922 -1212)"><circle class="c" cx="3" cy="3" r="3" transform="translate(922 1292)"/></g><g transform="translate(-907 -1212)"><circle class="c" cx="3" cy="3" r="3" transform="translate(922 1292)"/></g><g transform="translate(-892 -1212)"><circle class="c" cx="3" cy="3" r="3" transform="translate(922 1292)"/></g><g transform="translate(-877 -1212)"><circle class="c" cx="3" cy="3" r="3" transform="translate(922 1292)"/></g><g transform="translate(-862 -1212)"><circle class="c" cx="3" cy="3" r="3" transform="translate(922 1292)"/></g><g transform="translate(-847 -1212)"><circle class="c" cx="3" cy="3" r="3" transform="translate(922 1292)"/></g><g transform="translate(-832 -1212)"><circle class="c" cx="3" cy="3" r="3" transform="translate(922 1292)"/></g><g transform="translate(-817 -1212)"><circle class="c" cx="3" cy="3" r="3" transform="translate(922 1292)"/></g></g></svg>