<svg xmlns="http://www.w3.org/2000/svg" width="23.5" height="50.39" viewBox="0 0 23.5 50.39"><defs><style>.a{fill:#2484c6;}</style></defs><path class="a" d="M150.605,0h-4.482a9.59,9.59,0,0,0-9.493,9.49l-.033,9.878a.738.738,0,0,0,.736.741h0a.738.738,0,0,0,.738-.736l.019-5.679h13.494a.738.738,0,0,0,0-1.476h-2.52V7.436a.738.738,0,1,0-1.476,0v4.781H138.1l.009-2.724a8.124,8.124,0,0,1,8.016-8.016h1.468V3.911a.738.738,0,0,0,1.476,0V1.476h1.538a8.025,8.025,0,0,1,8.016,8.016v2.724h-3.509a.738.738,0,0,0,0,1.476h3.509V26.68a7.967,7.967,0,0,1-7.5,7.954v-2.6a2.707,2.707,0,0,0-5.414,0v2.6a8.01,8.01,0,0,1-7.6-7.954V23a.738.738,0,1,0-1.476,0V26.68a9.488,9.488,0,0,0,9.076,9.433V41.2l-2.466-2.466a2.707,2.707,0,0,0-3.828,3.828L146.45,49.6a2.72,2.72,0,0,0,3.828,0l2.744-2.744a.738.738,0,0,0-1.044-1.044l-2.744,2.744a1.236,1.236,0,0,1-1.74,0l-7.038-7.038a1.23,1.23,0,0,1,1.74-1.74l3.716,3.716a.751.751,0,0,0,1.271-.533V32.038a1.23,1.23,0,0,1,2.461,0V42.866a.751.751,0,0,0,1.271.533l3.617-3.617a1.23,1.23,0,1,1,1.74,1.74l-1.858,1.858a.738.738,0,1,0,1.044,1.044l1.858-1.858a2.707,2.707,0,0,0-3.828-3.828L151.12,41.1V36.113A9.414,9.414,0,0,0,160.1,26.68V9.493A9.5,9.5,0,0,0,150.605,0Z" transform="translate(-136.598)"/></svg>