<svg xmlns="http://www.w3.org/2000/svg" width="423.213" height="268.451" viewBox="0 0 423.213 268.451"><defs><style>.a{fill:#2484c6;}</style></defs><g transform="matrix(-0.995, -0.105, 0.105, -0.995, 399.515, 268.451)"><g transform="translate(0 0)"><path class="a" d="M27.392,18.719H20.731l-2.042,5.617a3.385,3.385,0,0,1-3.284,2.129h0a3.384,3.384,0,0,1-3.282-2.136L10.1,18.719H3.459A3.385,3.385,0,0,1,.175,16.587a2.859,2.859,0,0,1,1.264-3.443L6.823,9.678,4.764,4.044A2.858,2.858,0,0,1,6.018.6a3.736,3.736,0,0,1,4.061,0l5.372,3.491L20.8.628a3.735,3.735,0,0,1,4.063,0,2.857,2.857,0,0,1,1.247,3.448l-2.059,5.6,5.371,3.473a2.859,2.859,0,0,1,1.257,3.442A3.386,3.386,0,0,1,27.392,18.719Zm.514-3.711-6.132-3.965a1.082,1.082,0,0,1-.468-1.288l2.352-6.393a.71.71,0,0,0-.316-.874.918.918,0,0,0-1.031,0l-6.1,3.956a1.416,1.416,0,0,1-1.516,0L8.562,2.459a.918.918,0,0,0-1.03,0,.711.711,0,0,0-.318.874l2.35,6.431a1.082,1.082,0,0,1-.471,1.287L2.947,15.007a.7.7,0,0,0-.321.873.823.823,0,0,0,.833.541h7.575a1.283,1.283,0,0,1,1.226.8l2.31,6.407a.843.843,0,0,0,.833.542h0a.843.843,0,0,0,.833-.54l2.331-6.412a1.283,1.283,0,0,1,1.226-.795h7.6a.824.824,0,0,0,.833-.54.7.7,0,0,0-.319-.873Z" transform="translate(0 0)"/><path class="a" d="M7.437,1.925A2.4,2.4,0,0,1,9.566.029,2.993,2.993,0,0,1,9.982,0a2.557,2.557,0,0,1,2.261,1.252L14.313,4.9l4.548-.646A2.609,2.609,0,0,1,21.54,5.471a2.069,2.069,0,0,1-.469,2.648L17.8,11.034l2.091,3.653a2.069,2.069,0,0,1-.471,2.65,2.747,2.747,0,0,1-2.972.414l-4.083-1.869L9.106,18.788a2.747,2.747,0,0,1-2.971.418,2.189,2.189,0,0,1-1.359-2.393l.735-4.059L1.4,10.889A2.191,2.191,0,0,1,.033,8.5,2.4,2.4,0,0,1,2.161,6.606L6.72,5.967Zm.079,9.16A1.12,1.12,0,0,1,8.2,12.292l-.873,4.829,3.876-3.456a1.407,1.407,0,0,1,1.5-.21l4.861,2.225L15.08,11.335A1.058,1.058,0,0,1,15.317,10L19.2,6.534,13.791,7.3a1.336,1.336,0,0,1-1.352-.616L9.972,2.341,9.119,7.152a1.226,1.226,0,0,1-1.073.955l-5.421.76Z" transform="translate(389.053 207.282)"/><path class="a" d="M23.489,17.1a1.337,1.337,0,0,1-1.655.68,1.118,1.118,0,0,1-.763-1.476A10.132,10.132,0,0,0,18.24,4.786a10.4,10.4,0,0,0-13.5,0A6.2,6.2,0,0,0,2.577,9.44a6.2,6.2,0,0,0,2.161,4.654,5.972,5.972,0,0,0,3.992,1.475,5.972,5.972,0,0,0,3.992-1.475,3.519,3.519,0,0,0,0-5.372,3.43,3.43,0,0,0-4.455,0,1.4,1.4,0,0,1-1.822,0,1.063,1.063,0,0,1,0-1.625,6.236,6.236,0,0,1,8.1,0,5.648,5.648,0,0,1,0,8.621,8.7,8.7,0,0,1-5.814,2.148,8.7,8.7,0,0,1-5.814-2.148A8.367,8.367,0,0,1,0,9.44,8.367,8.367,0,0,1,2.916,3.162,12.872,12.872,0,0,1,11.489,0a12.879,12.879,0,0,1,8.573,3.162A12.26,12.26,0,0,1,23.489,17.1Z" transform="translate(131.447 155.105)"/><path class="a" d="M4.9,8.732A4.659,4.659,0,0,1,0,4.366,4.659,4.659,0,0,1,4.9,0a4.659,4.659,0,0,1,4.9,4.366A4.659,4.659,0,0,1,4.9,8.732ZM4.9,2.3A2.207,2.207,0,0,0,2.577,4.366,2.207,2.207,0,0,0,4.9,6.434,2.207,2.207,0,0,0,7.214,4.366,2.207,2.207,0,0,0,4.9,2.3Z" transform="translate(392.238 2.989)"/><path class="a" d="M4.089,7.294A3.892,3.892,0,0,1,0,3.647,3.892,3.892,0,0,1,4.089,0,3.892,3.892,0,0,1,8.179,3.647,3.892,3.892,0,0,1,4.089,7.294Zm0-5A1.44,1.44,0,0,0,2.577,3.647,1.44,1.44,0,0,0,4.089,5,1.44,1.44,0,0,0,5.6,3.647,1.44,1.44,0,0,0,4.089,2.3Z" transform="translate(402.697 99.086)"/><path class="a" d="M4.9,0a4.659,4.659,0,0,1,4.9,4.366A4.659,4.659,0,0,1,4.9,8.732,4.659,4.659,0,0,1,0,4.366,4.659,4.659,0,0,1,4.9,0Zm0,6.434A2.207,2.207,0,0,0,7.214,4.366,2.207,2.207,0,0,0,4.9,2.3,2.207,2.207,0,0,0,2.577,4.366,2.207,2.207,0,0,0,4.9,6.434Z" transform="translate(0.003 218.01)"/><path class="a" d="M1.288,3.83A1.225,1.225,0,0,1,0,2.681V1.149A1.225,1.225,0,0,1,1.288,0,1.225,1.225,0,0,1,2.577,1.149V2.681A1.225,1.225,0,0,1,1.288,3.83Z" transform="translate(277.171 126.977)"/><path class="a" d="M1.288,3.83A1.225,1.225,0,0,1,0,2.681V1.149A1.225,1.225,0,0,1,1.288,0,1.225,1.225,0,0,1,2.577,1.149V2.681A1.225,1.225,0,0,1,1.288,3.83Z" transform="translate(277.171 95.934)"/><path class="a" d="M3.006,0A1.225,1.225,0,0,1,4.294,1.149,1.225,1.225,0,0,1,3.006,2.3H1.288A1.225,1.225,0,0,1,0,1.149,1.225,1.225,0,0,1,1.288,0Z" transform="translate(306.341 112.221)"/><path class="a" d="M0,1.149A1.225,1.225,0,0,1,1.288,0H3.006A1.225,1.225,0,0,1,4.294,1.149,1.225,1.225,0,0,1,3.006,2.3H1.288A1.225,1.225,0,0,1,0,1.149Z" transform="translate(249.72 112.221)"/><path class="a" d="M4.478,7.288A3.809,3.809,0,0,1,3.15,10.146a1.4,1.4,0,0,1-1.822,0,1.063,1.063,0,0,1,0-1.625,1.616,1.616,0,0,0,0-2.468A3.81,3.81,0,0,1,0,3.2,3.81,3.81,0,0,1,1.328.337,1.368,1.368,0,0,1,2.239,0,1.368,1.368,0,0,1,3.15.337a1.063,1.063,0,0,1,0,1.625,1.616,1.616,0,0,0,0,2.468A3.809,3.809,0,0,1,4.478,7.288Z" transform="translate(2.66 136.04)"/><path class="a" d="M8.075,8.35A4.456,4.456,0,0,1,3.394,4.175,2,2,0,0,0,1.288,2.3,1.225,1.225,0,0,1,0,1.149,1.225,1.225,0,0,1,1.288,0,4.456,4.456,0,0,1,5.97,4.175,2,2,0,0,0,8.075,6.053,1.225,1.225,0,0,1,9.364,7.2,1.225,1.225,0,0,1,8.075,8.35Z" transform="translate(250.712 40.769)"/><path class="a" d="M1.288,0A1.382,1.382,0,0,1,2.2.337a1.1,1.1,0,0,1,.378.812,1.1,1.1,0,0,1-.378.812,1.38,1.38,0,0,1-.911.337,1.382,1.382,0,0,1-.911-.337A1.1,1.1,0,0,1,0,1.149,1.1,1.1,0,0,1,.378.337,1.382,1.382,0,0,1,1.288,0Z" transform="translate(206.107 218.24)"/></g></g></svg>