<svg xmlns="http://www.w3.org/2000/svg" width="450.188" height="440.042" viewBox="0 0 450.188 440.042"><defs><style>.a{fill:#2484c6;}</style></defs><g transform="translate(-0.005 268.915) rotate(-41)"><g transform="translate(0 0.001)"><path class="a" d="M24.429,289.443H18.488l-1.821-5.617a3.032,3.032,0,0,0-2.928-2.129h0a3.032,3.032,0,0,0-2.927,2.136L9,289.443H3.085a3.079,3.079,0,0,0-1.8,5.575l4.8,3.467-1.836,5.634a3.032,3.032,0,0,0,1.118,3.445,3.032,3.032,0,0,0,3.622,0l4.791-3.491,4.767,3.464a3.079,3.079,0,0,0,4.735-3.45l-1.836-5.6,4.79-3.473a3.079,3.079,0,0,0-1.807-5.571Zm.458,3.711-5.469,3.965A1.149,1.149,0,0,0,19,298.407l2.1,6.394a.781.781,0,0,1-1.2.875l-5.443-3.956a1.149,1.149,0,0,0-1.352,0L7.636,305.7a.781.781,0,0,1-1.2-.873l2.1-6.431a1.149,1.149,0,0,0-.42-1.287l-5.481-3.957a.781.781,0,0,1,.457-1.414H9.841a1.149,1.149,0,0,0,1.094-.8l2.06-6.407a.747.747,0,0,1,.743-.542h0a.746.746,0,0,1,.743.54l2.079,6.412a1.149,1.149,0,0,0,1.093.795h6.776a.781.781,0,0,1,.458,1.413Z" transform="translate(0 -81.417)"/><path class="a" d="M349.26,17.539a2.245,2.245,0,0,0,1.9,1.9,2.385,2.385,0,0,0,.371.029,2.239,2.239,0,0,0,2.016-1.252l1.847-3.65,4.056.646a2.279,2.279,0,0,0,1.97-3.862L358.5,8.429l1.865-3.654A2.279,2.279,0,0,0,357.3,1.712l-3.641,1.869L350.749.676A2.245,2.245,0,0,0,348.1.258a2.245,2.245,0,0,0-1.212,2.393l.655,4.059-3.667,1.864a2.279,2.279,0,0,0,.679,4.283l4.066.638Zm.071-9.16a1.149,1.149,0,0,0,.613-1.207l-.779-4.829L352.622,5.8a1.149,1.149,0,0,0,1.337.21l4.335-2.225-2.218,4.345a1.149,1.149,0,0,0,.211,1.335l3.465,3.466-4.826-.769a1.149,1.149,0,0,0-1.206.616l-2.2,4.346-.761-4.811a1.149,1.149,0,0,0-.957-.955l-4.834-.76Z" transform="translate(47.802 -0.001)"/><path class="a" d="M130.684,92.554a1.149,1.149,0,0,0-2.156.8A10.969,10.969,0,0,1,126,104.869a8.523,8.523,0,0,1-12.04,0,6.581,6.581,0,0,1,0-9.307,5.035,5.035,0,0,1,7.121,0,3.8,3.8,0,0,1,0,5.372,2.812,2.812,0,0,1-3.973,0,1.149,1.149,0,0,0-1.625,1.625,5.113,5.113,0,0,0,7.222,0,6.1,6.1,0,0,0,0-8.621,7.333,7.333,0,0,0-10.371,0,8.879,8.879,0,0,0,0,12.557,10.824,10.824,0,0,0,15.29,0A13.273,13.273,0,0,0,130.684,92.554Z" transform="translate(22.274 -38.015)"/><path class="a" d="M371.722,410.03a4.366,4.366,0,1,0,4.366,4.366A4.371,4.371,0,0,0,371.722,410.03Zm0,6.434a2.068,2.068,0,1,1,2.068-2.068A2.07,2.07,0,0,1,371.722,416.464Z" transform="translate(25.915 -195.006)"/><path class="a" d="M452.186,246.03a3.647,3.647,0,1,0,3.647,3.647A3.651,3.651,0,0,0,452.186,246.03Zm0,5a1.349,1.349,0,1,1,1.349-1.349A1.351,1.351,0,0,1,452.186,251.026Z" transform="translate(-45.941 -125.665)"/><path class="a" d="M4.389,8.762A4.366,4.366,0,1,0,.023,4.4,4.371,4.371,0,0,0,4.389,8.762Zm0-6.434A2.068,2.068,0,1,1,2.321,4.4,2.07,2.07,0,0,1,4.389,2.328Z" transform="translate(-0.02 -0.027)"/><path class="a" d="M335.172,206.03a1.149,1.149,0,0,0-1.149,1.149v1.532a1.149,1.149,0,1,0,2.3,0v-1.532A1.149,1.149,0,0,0,335.172,206.03Z" transform="translate(-57.331 -110.092)"/><path class="a" d="M335.172,272.7a1.149,1.149,0,0,0-1.149,1.149v1.532a1.149,1.149,0,1,0,2.3,0v-1.532A1.149,1.149,0,0,0,335.172,272.7Z" transform="translate(-57.331 -145.715)"/><path class="a" d="M363.371,248.328a1.149,1.149,0,0,0,0-2.3h-1.532a1.149,1.149,0,0,0,0,2.3Z" transform="translate(-54.741 -133.804)"/><path class="a" d="M294.023,247.179a1.149,1.149,0,0,0,1.149,1.149H296.7a1.149,1.149,0,1,0,0-2.3h-1.532A1.149,1.149,0,0,0,294.023,247.179Z" transform="translate(-44.623 -133.804)"/><path class="a" d="M24.637,159.293a4.016,4.016,0,0,0-1.184-2.859,1.149,1.149,0,1,0-1.625,1.625,1.747,1.747,0,0,1,0,2.468,4.043,4.043,0,0,0,0,5.717,1.149,1.149,0,1,0,1.625-1.625,1.747,1.747,0,0,1,0-2.468A4.016,4.016,0,0,0,24.637,159.293Z" transform="translate(-18.272 -75.876)"/><path class="a" d="M281.55,357.348a4.18,4.18,0,0,0-4.175,4.175A1.88,1.88,0,0,1,275.5,363.4a1.149,1.149,0,0,0,0,2.3,4.18,4.18,0,0,0,4.175-4.175,1.879,1.879,0,0,1,1.877-1.877,1.149,1.149,0,0,0,0-2.3Z" transform="translate(-23.618 -179.722)"/><path class="a" d="M249.532,56.328a1.15,1.15,0,1,0-.812-.337A1.157,1.157,0,0,0,249.532,56.328Z" transform="translate(-42.632 -47.823)"/></g></g></svg>