<svg xmlns="http://www.w3.org/2000/svg" width="299.354" height="349.926" viewBox="0 0 299.354 349.926"><defs><style>.a{fill:#fff;}</style></defs><g transform="translate(-35.312 0)"><path class="a" d="M250.692,173.7a65.709,65.709,0,1,1-65.709-65.709A65.709,65.709,0,0,1,250.692,173.7Zm58.545-16.913c-4.7,9.953-9.894,19.718-15.485,29.279,1.623,2.879,3.244,5.77,4.892,8.835,8.346,15.863,17.093,34.217,23.822,55.505a171.358,171.358,0,0,1,7.195,34.3c1.029,12.153.976,25.545-4.827,38.717a43.67,43.67,0,0,1-13.827,17.281c-.689.493-1.208.955-2.037,1.477l-2.712,1.57a38.756,38.756,0,0,1-5.4,2.529,53.837,53.837,0,0,1-11.128,2.948c-15.2,2.171-30-1.025-43.815-5.748-21.889-7.8-42.08-19.739-60.934-33.776-18.853,14.041-39.04,25.972-60.932,33.776-13.816,4.728-28.618,7.92-43.817,5.748a54.109,54.109,0,0,1-11.128-2.948,40.017,40.017,0,0,1-5.4-2.529L61,342.184c-.835-.523-1.347-.985-2.037-1.477a43.708,43.708,0,0,1-13.827-17.281c-5.806-13.173-5.863-26.564-4.827-38.717A171.813,171.813,0,0,1,47.5,250.4c6.729-21.289,15.475-39.641,23.822-55.505,1.648-3.065,3.268-5.956,4.895-8.835-5.591-9.561-10.78-19.326-15.487-29.279C48.05,129.82,38.4,101.51,35.784,72.233c-1.147-14.566-.512-29.7,5.4-43.9A47.6,47.6,0,0,1,54.787,9.849l1.127-.907.563-.456.281-.223a6.985,6.985,0,0,1,.6-.414L59.414,6.58a41.638,41.638,0,0,1,5-2.616,46.387,46.387,0,0,1,10.6-3.2c14.226-2.32,27.21.976,38.722,5.036a171.58,171.58,0,0,1,31.413,15.56,314.039,314.039,0,0,1,39.834,29.926,313.759,313.759,0,0,1,39.833-29.926A171.36,171.36,0,0,1,256.236,5.8c11.512-4.06,24.5-7.349,38.721-5.036a46.319,46.319,0,0,1,10.6,3.2,41.305,41.305,0,0,1,5,2.616l2.058,1.269c-.2-.158.571.384.6.414l.28.223.562.456,1.125.907a47.537,47.537,0,0,1,13.6,18.486c5.913,14.193,6.545,29.331,5.4,43.9C331.567,101.51,321.918,129.82,309.237,156.785ZM166.046,294.547a428.06,428.06,0,0,1-57.954-61.3,453.258,453.258,0,0,1-30.925-45.564c-1.35,2.66-2.7,5.3-4.044,8.124-7.6,16.1-15.245,34.866-20.081,56.1a164.468,164.468,0,0,0-4.358,33.244c-.017,11.364,1.5,23.36,6.953,32.987,5.379,9.672,15.024,15.354,26.286,15.851,11.311.65,23.527-3.091,35.239-8.154C134.251,318.2,150.522,307.148,166.046,294.547ZM292.8,187.678a453.379,453.379,0,0,1-30.925,45.564,427.931,427.931,0,0,1-57.956,61.3c15.523,12.6,31.8,23.651,48.886,31.278,11.712,5.062,23.921,8.808,35.237,8.154,11.259-.493,20.908-6.179,26.285-15.851,5.455-9.623,6.972-21.628,6.956-32.987a164.176,164.176,0,0,0-4.361-33.245c-4.835-21.231-12.484-40-20.08-56.1C295.5,192.976,294.145,190.333,292.8,187.678Zm-41.517-65.314s2.229,2.91,6.406,8.376c4.077,5.536,10.034,13.681,17.15,24.379,1.2,1.786,2.459,3.755,3.707,5.684,2.925-5.01,5.816-10.038,8.538-15.116,12.9-24.67,23.839-50.277,28.143-75.733,1.954-12.6,2.542-25.348-.92-36.122a33.014,33.014,0,0,0-8.141-13.711l-.7-.693-.344-.349-.175-.175c-.117-.107.476.336.1.064l-1.936-1.45a23.131,23.131,0,0,0-3.327-2.145,34.125,34.125,0,0,0-7.347-2.97c-10.67-2.874-22.658-1.339-33.646,1.5a164.962,164.962,0,0,0-31.1,12.523A257.938,257.938,0,0,0,186.944,53.01c2.037,1.795,4.042,3.582,5.98,5.34,13.165,12.181,24,23.429,32.547,33.016,8.573,9.569,14.974,17.37,19.308,22.707l6.506,8.29s-2.293-2.867-6.584-8.244c-4.421-5.259-10.77-13.114-19.584-22.446A382.556,382.556,0,0,0,191.57,59.881c-2.121-1.768-4.337-3.553-6.586-5.344-2.25,1.786-4.465,3.576-6.591,5.339A383.212,383.212,0,0,0,144.847,91.67c-8.815,9.336-15.164,17.191-19.586,22.446-4.291,5.377-6.582,8.241-6.582,8.241s2.265-2.882,6.51-8.3c4.337-5.335,10.735-13.136,19.308-22.705,8.551-9.582,19.382-20.835,32.547-33.016,1.936-1.764,3.941-3.545,5.978-5.339A257.814,257.814,0,0,0,142.27,26.42a165.23,165.23,0,0,0-31.1-12.523c-10.991-2.841-22.978-4.371-33.646-1.5a34.06,34.06,0,0,0-7.349,2.969,24.236,24.236,0,0,0-3.327,2.143l-1.934,1.452c-.371.277.224-.17.1-.063l-.173.174-.344.349-.7.691a33.036,33.036,0,0,0-8.144,13.714c-3.46,10.775-2.872,23.523-.92,36.123,4.3,25.456,15.245,51.064,28.143,75.733,2.721,5.078,5.614,10.105,8.538,15.116,1.247-1.934,2.514-3.9,3.707-5.685,7.118-10.7,13.075-18.844,17.15-24.382l6.408-8.376s-2.2,2.935-6.331,8.436c-3.992,5.6-10,13.707-16.838,24.576-1.21,1.908-2.476,4-3.737,6.07a510.551,510.551,0,0,0,37.49,55.4,505.43,505.43,0,0,0,55.717,61.292A505.728,505.728,0,0,0,240.7,216.84a511.326,511.326,0,0,0,37.488-55.4c-1.26-2.074-2.524-4.166-3.737-6.07-6.837-10.866-12.846-18.977-16.837-24.576C253.484,125.3,251.285,122.364,251.285,122.364Z" transform="translate(0)"/></g></svg>