<svg xmlns="http://www.w3.org/2000/svg" width="113.723" height="110.809" viewBox="0 0 113.723 110.809"><defs><style>.a{fill:#fff;}</style></defs><g transform="matrix(0.866, -0.5, 0.5, 0.866, -0.054, 43.083)"><g transform="translate(0.045 0.026)"><path class="a" d="M84.229,67.273H80.018a4.591,4.591,0,0,0,.509-2.1l0-34.224a1.262,1.262,0,0,0-2.524,0l0,34.224a2.105,2.105,0,0,1-2.1,2.1H10.268a2.105,2.105,0,0,1-2.1-2.1l0-43.726a2.105,2.105,0,0,1,2.1-2.1H43.757a2.886,2.886,0,0,0-.158,2.523H11.948a1.262,1.262,0,0,0-1.262,1.261V49.765a1.262,1.262,0,0,0,2.524,0V24.388H33.939c-.172.687-.365,1.528-.456,2.176a.363.363,0,0,1-.181.261l-2.111,1.215a.366.366,0,0,1-.318.026c-.717-.289-1.741-.592-2.475-.8a2.9,2.9,0,0,0-3.282,1.339l-1.141,1.97a2.889,2.889,0,0,0,.482,3.515c.542.53,1.316,1.262,1.925,1.736a.36.36,0,0,1,.135.284V38.54a.362.362,0,0,1-.135.285,25.857,25.857,0,0,0-1.925,1.736,2.889,2.889,0,0,0-.481,3.515l1.141,1.97A2.9,2.9,0,0,0,28.4,47.384c.733-.2,1.758-.506,2.475-.8a.367.367,0,0,1,.317.026L33.3,47.83a.364.364,0,0,1,.181.261,25.773,25.773,0,0,0,.545,2.527,2.9,2.9,0,0,0,2.805,2.172h2.285a2.9,2.9,0,0,0,2.8-2.172,25.744,25.744,0,0,0,.545-2.528.365.365,0,0,1,.181-.261l2.111-1.215a.366.366,0,0,1,.318-.026c.717.289,1.741.592,2.475.8a2.9,2.9,0,0,0,3.282-1.339l1.141-1.97a2.889,2.889,0,0,0-.482-3.515,25.851,25.851,0,0,0-1.925-1.736.362.362,0,0,1-.135-.285V36.114a.361.361,0,0,1,.135-.285,25.857,25.857,0,0,0,1.925-1.736,2.889,2.889,0,0,0,.481-3.515l-1.141-1.97a2.9,2.9,0,0,0-3.283-1.338c-.733.2-1.758.506-2.475.8a.369.369,0,0,1-.317-.026l-2.111-1.215a.363.363,0,0,1-.18-.26c-.092-.648-.284-1.49-.456-2.177h3.028a2.9,2.9,0,0,0,3.153,1.134c.734-.2,1.758-.506,2.475-.8a.367.367,0,0,1,.317.026l2.111,1.215a.364.364,0,0,1,.181.261,25.82,25.82,0,0,0,.545,2.527,2.9,2.9,0,0,0,2.805,2.172H58.91a2.9,2.9,0,0,0,2.8-2.172,25.7,25.7,0,0,0,.545-2.528.365.365,0,0,1,.181-.261l2.111-1.215a.367.367,0,0,1,.318-.026c.717.289,1.741.592,2.475.8A2.9,2.9,0,0,0,70.5,24.387h2.455l0,37.839H13.213V55.209a1.262,1.262,0,0,0-2.524,0v8.279a1.262,1.262,0,0,0,1.262,1.261H74.216a1.262,1.262,0,0,0,1.262-1.261l0-40.362a1.262,1.262,0,0,0-1.262-1.261H71.937a2.886,2.886,0,0,0-.158-2.523H75.9a2.105,2.105,0,0,1,2.1,2.1v4.151a1.262,1.262,0,0,0,2.524,0V21.444A4.632,4.632,0,0,0,75.9,16.819H69.256a.372.372,0,0,1-.029-.141V14.25a.36.36,0,0,1,.135-.285c.609-.474,1.383-1.206,1.925-1.736a2.889,2.889,0,0,0,.481-3.515l-1.141-1.97a2.9,2.9,0,0,0-3.283-1.338c-.734.2-1.759.507-2.475.8a.369.369,0,0,1-.317-.026L62.441,4.96a.363.363,0,0,1-.18-.26,25.806,25.806,0,0,0-.545-2.527A2.9,2.9,0,0,0,58.91,0H56.625a2.9,2.9,0,0,0-2.8,2.172A25.736,25.736,0,0,0,53.275,4.7a.363.363,0,0,1-.181.261L50.984,6.175a.366.366,0,0,1-.317.026c-.715-.288-1.741-.592-2.475-.8a2.9,2.9,0,0,0-3.282,1.339l-1.141,1.97a2.889,2.889,0,0,0,.482,3.515c.542.53,1.315,1.261,1.925,1.736a.36.36,0,0,1,.135.284v2.427a.373.373,0,0,1-.029.141H10.266a4.632,4.632,0,0,0-4.628,4.625l0,43.726a4.593,4.593,0,0,0,.508,2.1H1.936A1.937,1.937,0,0,0,0,69.206V72.57A5.642,5.642,0,0,0,5.638,78.2H64.6a1.261,1.261,0,1,0,0-2.523H5.638A3.116,3.116,0,0,1,2.525,72.57V69.8H34.079v.757a3.284,3.284,0,0,0,3.282,3.28H48.8a3.284,3.284,0,0,0,3.282-3.28V69.8H83.64v2.775a3.116,3.116,0,0,1-3.113,3.111H70.049a1.261,1.261,0,1,0,0,2.523H80.527a5.642,5.642,0,0,0,5.638-5.634V69.207a1.937,1.937,0,0,0-1.935-1.934ZM39.478,24.668a22.8,22.8,0,0,1,.49,2.248,2.865,2.865,0,0,0,1.42,2.094L43.5,30.225a2.873,2.873,0,0,0,2.521.179,23.11,23.11,0,0,1,2.205-.7.373.373,0,0,1,.424.171l1.141,1.97a.369.369,0,0,1-.063.449,22.866,22.866,0,0,1-1.71,1.549,2.862,2.862,0,0,0-1.108,2.275v2.427a2.862,2.862,0,0,0,1.108,2.275,22.882,22.882,0,0,1,1.71,1.549.369.369,0,0,1,.063.449l-1.141,1.97a.375.375,0,0,1-.423.171,23.078,23.078,0,0,1-2.205-.7,2.872,2.872,0,0,0-2.522.179l-2.111,1.215a2.866,2.866,0,0,0-1.42,2.094h0a22.784,22.784,0,0,1-.49,2.248.374.374,0,0,1-.361.281H36.833a.374.374,0,0,1-.361-.281,22.8,22.8,0,0,1-.49-2.248,2.867,2.867,0,0,0-1.42-2.094l-2.111-1.215a2.871,2.871,0,0,0-2.521-.18,23.106,23.106,0,0,1-2.205.7.373.373,0,0,1-.424-.171l-1.141-1.97a.369.369,0,0,1,.063-.449,22.928,22.928,0,0,1,1.71-1.549,2.862,2.862,0,0,0,1.107-2.274V36.113a2.862,2.862,0,0,0-1.108-2.275,22.88,22.88,0,0,1-1.71-1.549.369.369,0,0,1-.063-.449l1.141-1.97a.375.375,0,0,1,.423-.171,23.078,23.078,0,0,1,2.205.7,2.873,2.873,0,0,0,2.522-.179l2.111-1.215a2.866,2.866,0,0,0,1.421-2.094,22.782,22.782,0,0,1,.49-2.248.373.373,0,0,1,.356-.281h2.294a.374.374,0,0,1,.357.281Zm6.537-14.241a.369.369,0,0,1-.063-.449l1.141-1.97a.374.374,0,0,1,.423-.171,23,23,0,0,1,2.205.7,2.872,2.872,0,0,0,2.522-.179l2.111-1.215a2.866,2.866,0,0,0,1.421-2.094,22.742,22.742,0,0,1,.49-2.248.374.374,0,0,1,.361-.281H58.91a.374.374,0,0,1,.361.281,22.757,22.757,0,0,1,.49,2.248,2.866,2.866,0,0,0,1.42,2.094l2.111,1.215a2.871,2.871,0,0,0,2.521.179,23.08,23.08,0,0,1,2.205-.7.373.373,0,0,1,.424.171l1.141,1.97a.369.369,0,0,1-.063.449,22.909,22.909,0,0,1-1.71,1.548A2.862,2.862,0,0,0,66.7,14.25v2.427a2.862,2.862,0,0,0,1.108,2.275A22.855,22.855,0,0,1,69.52,20.5a.369.369,0,0,1,.063.449l-1.141,1.97a.374.374,0,0,1-.423.171,23.08,23.08,0,0,1-2.205-.7,2.872,2.872,0,0,0-2.522.179l-2.111,1.215a2.866,2.866,0,0,0-1.42,2.094h0a22.782,22.782,0,0,1-.49,2.248.374.374,0,0,1-.361.281H56.626a.374.374,0,0,1-.361-.281,22.8,22.8,0,0,1-.49-2.248,2.867,2.867,0,0,0-1.42-2.094l-2.111-1.215a2.871,2.871,0,0,0-2.521-.18,23.083,23.083,0,0,1-2.205.7.373.373,0,0,1-.424-.171l-.223-.386c-.007-.013-.015-.026-.022-.039l-.895-1.545a.369.369,0,0,1,.063-.449,22.953,22.953,0,0,1,1.71-1.549,2.862,2.862,0,0,0,1.107-2.274V14.25a2.862,2.862,0,0,0-1.108-2.275,22.87,22.87,0,0,1-1.711-1.549Zm3.546,60.126a.758.758,0,0,1-.757.757H37.361a.758.758,0,0,1-.757-.757V69.8H49.562Z" transform="translate(0.002 0)"/><path class="a" d="M6.887,13.746A6.873,6.873,0,1,0,0,6.873,6.888,6.888,0,0,0,6.887,13.746ZM4.92,10.753H8.854a4.36,4.36,0,0,1-3.934,0ZM6.887,2.525A4.361,4.361,0,0,1,11.25,6.873a4.314,4.314,0,0,1-.218,1.356H2.743a4.345,4.345,0,0,1,4.144-5.7Z" transform="translate(50.882 8.598)"/><path class="a" d="M0,6.873A6.887,6.887,0,1,0,6.887,0,6.888,6.888,0,0,0,0,6.873Zm11.25,0A4.363,4.363,0,1,1,6.887,2.524,4.361,4.361,0,0,1,11.25,6.873Z" transform="translate(31.089 30.458)"/></g></g></svg>