<svg xmlns="http://www.w3.org/2000/svg" width="87.868" height="90.346" viewBox="0 0 87.868 90.346"><defs><style>.a{fill:#fff;}</style></defs><g transform="matrix(0.829, -0.559, 0.559, 0.829, -10.881, 42.502)"><g transform="translate(62.733 38.891)"><path class="a" d="M356.755,233.88a1.333,1.333,0,0,0-2.387.612l-.74,5.187a1.311,1.311,0,0,1-.069.195,23.971,23.971,0,0,0,3.26-5.909Z" transform="translate(-353.559 -233.346)"/></g><g transform="translate(19.539 7.016)"><path class="a" d="M136.367,81.471a1.475,1.475,0,0,1-.188-.012l-7.921-1.132a1.333,1.333,0,0,1-1.131-1.509h0l.74-5.187a1.333,1.333,0,0,0-2.119-1.255l-4.192,3.143a1.333,1.333,0,0,1-1.867-.267h0l-4.8-6.4a1.333,1.333,0,0,1,.267-1.867l4.191-3.143a1.333,1.333,0,0,0-.612-2.387l-5.187-.741a1.333,1.333,0,0,1-1.132-1.508v0l1.132-7.919a1.333,1.333,0,0,1,1.508-1.132h0l5.187.741a1.325,1.325,0,0,0,1.333-.641,1.305,1.305,0,0,0-.08-1.48l-3.14-4.19a1.333,1.333,0,0,1,.267-1.867l.756-.567a24.453,24.453,0,0,0-3.672.1A24,24,0,0,0,105.491,86.31a7.646,7.646,0,0,1,3.616,6.4V98.1a4,4,0,0,0,4,4h10.668a4,4,0,0,0,4-4V92.825a7.855,7.855,0,0,1,3.694-6.563,24.163,24.163,0,0,0,5.565-4.987A1.332,1.332,0,0,1,136.367,81.471ZM119.775,98.1h-2.667v-4h2.667Zm-2.667-6.667a8.513,8.513,0,0,0-5.467-7.947A18.669,18.669,0,0,1,108.492,50.3l1.415,2.256a16,16,0,0,0,2.7,28.447,11.157,11.157,0,0,1,7.171,10.429Z" transform="translate(-94.426 -42.12)"/></g><g transform="translate(38.221 73.668)"><path class="a" d="M206.5,441.987v1.333a2.667,2.667,0,0,0,2.667,2.667H214.5a2.667,2.667,0,0,0,2.667-2.667v-1.333Z" transform="translate(-206.503 -441.987)"/></g><g transform="translate(5.866 34.544)"><g transform="translate(0)"><path class="a" d="M36.409,225.055a25.239,25.239,0,0,1-2.279-1.666,7.984,7.984,0,1,1-8.063-11.6,25.4,25.4,0,0,1-1.056-4.522l-.233,1.109a2.667,2.667,0,0,1-4.122,1.648l-2.774-1.9-2.43,2.424,1.91,2.776a2.667,2.667,0,0,1-1.647,4.123l-3.324.7v3.168l3.324.7a2.667,2.667,0,0,1,1.646,4.124L15.453,228.9l2.43,2.424,2.771-1.909a2.667,2.667,0,0,1,4.123,1.647l.7,3.33h3.17l.7-3.324a2.667,2.667,0,0,1,4.123-1.647l2.77,1.9,2.86-2.86A6.509,6.509,0,0,0,36.409,225.055Z" transform="translate(-12.391 -207.267)"/></g></g><g transform="translate(38.221 68.334)"><rect class="a" width="10.668" height="2.667"/></g><g transform="translate(40.354 3.174)"><path class="a" d="M255.8,38.877a4,4,0,0,1-1.834-7.161l3.124-2.344-3.2-4.267-3.124,2.343a4,4,0,0,1-6.362-3.76l.552-3.867-5.279-.753-.552,3.867a4,4,0,0,1-7.161,1.834l-2.344-3.13-4.267,3.2,2.343,3.124a4,4,0,0,1-3.767,6.361l-3.867-.552-.757,5.281,3.867.552A4,4,0,0,1,225,46.764l-3.123,2.344,3.2,4.267,3.124-2.343a4,4,0,0,1,6.361,3.767l-.552,3.867,5.291.757.552-3.867a4,4,0,0,1,7.161-1.834l2.344,3.123,4.267-3.2-2.351-3.13a4,4,0,0,1,3.762-6.361l3.867.552.753-5.279Zm-16.312,8.365a8,8,0,1,1,8-8A8,8,0,0,1,239.486,47.242Z" transform="translate(-219.303 -19.067)"/></g><g transform="translate(68.891 49.665)"><rect class="a" width="9.334" height="2.667"/></g><g transform="translate(66.704 56.641)"><g transform="translate(0 0)"><rect class="a" width="2.667" height="10.414" transform="matrix(0.64, -0.768, 0.768, 0.64, 0, 2.049)"/></g></g><g transform="translate(60.89 60.333)"><rect class="a" width="2.667" height="9.334"/></g><g transform="translate(4.56 20.368)"><g transform="translate(0 0)"><rect class="a" width="10.996" height="2.666" transform="translate(0 2.666) rotate(-14.035)"/></g></g><g transform="translate(6.775 7.244)"><g transform="translate(0 0)"><rect class="a" width="2.666" height="11.47" transform="matrix(0.581, -0.814, 0.814, 0.581, 0, 2.169)"/></g></g><g transform="translate(18.201 -0.005)"><g transform="translate(0 0)"><rect class="a" width="2.667" height="11.01" transform="matrix(0.969, -0.248, 0.248, 0.969, 0, 0.661)"/></g></g></g></svg>