<svg xmlns="http://www.w3.org/2000/svg" width="90.124" height="90.124" viewBox="0 0 90.124 90.124"><defs><style>.a{fill:#fff;}</style></defs><g transform="translate(14.667 0.001) rotate(11)"><path class="a" d="M18.451,54.125h3.035a3.843,3.843,0,1,0,0-2.562H18.451a3.843,3.843,0,1,0,0,2.562Zm6.641-2.562a1.281,1.281,0,1,1-1.281,1.281A1.282,1.282,0,0,1,25.093,51.562Zm-11.53,1.281a1.281,1.281,0,1,1,1.281,1.281A1.282,1.282,0,0,1,13.562,52.843Z" transform="translate(0.531 11.213)"/><path class="a" d="M53.766,50.125a3.843,3.843,0,1,0,0-2.562H45.843a1.281,1.281,0,0,0-1.281,1.281v6.641a3.843,3.843,0,1,0,2.562,0v-5.36Zm3.608-2.562a1.281,1.281,0,1,1-1.281,1.281A1.282,1.282,0,0,1,57.374,47.562ZM45.843,60.374a1.281,1.281,0,1,1,1.281-1.281A1.282,1.282,0,0,1,45.843,60.374Z" transform="translate(9.247 10.089)"/><path class="a" d="M40.435,2A38.478,38.478,0,0,0,2,40.435a1.281,1.281,0,0,0,1.281,1.281H21.217v4.079a3.84,3.84,0,0,0-2.327,2.327H12.78L9.312,44.653a1.278,1.278,0,0,0-.906-.375H3.281V46.84H7.875l3.468,3.468a1.278,1.278,0,0,0,.906.375h6.641a3.84,3.84,0,0,0,2.327,2.327v2.8H13.295a3.843,3.843,0,1,0,0,2.562h9.2A1.281,1.281,0,0,0,23.78,57.09V53.01a3.821,3.821,0,0,0,0-7.215V41.716H28.9V55.808a1.276,1.276,0,0,0,.375.906l4.749,4.749v9.955a3.843,3.843,0,1,0,2.562,0V61.463l2.187-2.187a1.276,1.276,0,0,0,.375-.906V51.729a3.821,3.821,0,0,0,0-7.215v-2.8H51.435L48.5,44.653a1.276,1.276,0,0,0-.375.906v2.8a3.821,3.821,0,0,0,0,7.215v3.549l-2.187,2.187a1.276,1.276,0,0,0-.375.906v7.923a3.843,3.843,0,1,0,2.562,0V62.745l2.187-2.187a1.276,1.276,0,0,0,.375-.906V55.573a3.84,3.84,0,0,0,2.327-2.327h6.641a1.278,1.278,0,0,0,.906-.375L64.026,49.4h6.111a3.834,3.834,0,1,0,4.889-4.889v-2.8h2.562a1.281,1.281,0,0,0,1.281-1.281A38.478,38.478,0,0,0,40.435,2ZM9.687,58.371a1.281,1.281,0,1,1,1.281-1.281A1.282,1.282,0,0,1,9.687,58.371ZM22.5,50.684A1.281,1.281,0,1,1,23.78,49.4,1.282,1.282,0,0,1,22.5,50.684ZM46.84,75.026a1.281,1.281,0,1,1,1.281-1.281A1.282,1.282,0,0,1,46.84,75.026ZM71.5,22.514a59.468,59.468,0,0,1-6.545,2.131,42.994,42.994,0,0,0-4.31-9.541q2.095-.532,3.92-1.18A36.129,36.129,0,0,1,71.5,22.514ZM51.956,39.153c-.032-3.191-.181-6.4-.445-9.528a94.168,94.168,0,0,0,11.68-1.9,50.68,50.68,0,0,1,1.562,11.432ZM46.447,14.617c-1.965.122-3.972.195-6.012.195s-4.047-.073-6.012-.195c1.792-6.471,4.1-10.054,6.012-10.054S44.655,8.146,46.447,14.617Zm-1.12-9.326a22.664,22.664,0,0,1,11.095,8.128c-2.3.434-4.785.762-7.367,1A30.621,30.621,0,0,0,45.327,5.291Zm1.759,11.856A86,86,0,0,1,48.74,27.3c-2.721.209-5.5.322-8.306.322s-5.585-.113-8.3-.322a86,86,0,0,1,1.654-10.154c2.17.146,4.394.227,6.65.227s4.48-.081,6.652-.227ZM31.814,14.414c-2.582-.234-5.062-.562-7.367-1A22.651,22.651,0,0,1,35.542,5.29,30.65,30.65,0,0,0,31.814,14.414Zm-.607,2.516A93.314,93.314,0,0,0,29.6,27.077a91.341,91.341,0,0,1-11.215-1.818A39.817,39.817,0,0,1,22.832,15.7,78.123,78.123,0,0,0,31.206,16.931Zm-1.85,12.695c-.264,3.127-.413,6.337-.445,9.528h-12.8a50.69,50.69,0,0,1,1.562-11.432A93.989,93.989,0,0,0,29.356,29.625Zm2.535.225c2.8.218,5.659.334,8.543.334s5.742-.117,8.543-.334c.24,2.892.386,6,.415,9.3H31.475C31.506,35.849,31.652,32.743,31.892,29.851Zm19.377-2.774a93.315,93.315,0,0,0-1.605-10.147A78.5,78.5,0,0,0,58.039,15.7a39.863,39.863,0,0,1,4.446,9.561,91.59,91.59,0,0,1-11.215,1.817ZM62.264,12c-.988.3-2.034.585-3.129.844A30.679,30.679,0,0,0,53.917,7.2,35.767,35.767,0,0,1,62.264,12Zm-40.532.843c-1.094-.259-2.14-.539-3.129-.844A35.839,35.839,0,0,1,26.95,7.2,30.72,30.72,0,0,0,21.732,12.842Zm-5.427,1.083q1.828.644,3.92,1.18a42.993,42.993,0,0,0-4.31,9.541A59.556,59.556,0,0,1,9.37,22.515a36.078,36.078,0,0,1,6.935-8.59ZM8.167,24.79A61.353,61.353,0,0,0,15.2,27.1a52.874,52.874,0,0,0-1.649,12.051H4.584A35.635,35.635,0,0,1,8.167,24.79ZM35.31,76.307a1.281,1.281,0,1,1,1.281-1.281A1.282,1.282,0,0,1,35.31,76.307Zm2.562-26.9a1.281,1.281,0,1,1,1.281-1.281A1.282,1.282,0,0,1,37.872,49.4Zm-1.281-4.889a3.821,3.821,0,0,0,0,7.215V57.84L35.31,59.121l-3.843-3.843V41.716h5.125ZM49.4,53.246a1.281,1.281,0,1,1,1.281-1.281A1.282,1.282,0,0,1,49.4,53.246ZM73.745,49.4a1.281,1.281,0,1,1,1.281-1.281A1.282,1.282,0,0,1,73.745,49.4Zm-1.281-4.889a3.84,3.84,0,0,0-2.327,2.327H63.5a1.278,1.278,0,0,0-.906.375l-3.468,3.468H53.01a3.84,3.84,0,0,0-2.327-2.327V46.09l4.374-4.374H72.463Zm-5.148-5.36A52.874,52.874,0,0,0,65.667,27.1,61.1,61.1,0,0,0,72.7,24.789a35.6,35.6,0,0,1,3.583,14.364Z" transform="translate(-1.999 -2.001)"/></g></svg>