<svg xmlns="http://www.w3.org/2000/svg" width="90.705" height="93.017" viewBox="0 0 90.705 93.017"><defs><style>.a{fill:#fff;}</style></defs><g transform="translate(21.555 -8.981) rotate(15)"><path class="a" d="M36.7,29.019a1.7,1.7,0,0,1-.6-.108L3.135,16.767a1.734,1.734,0,0,1,0-3.255L25.693,5.218a1.736,1.736,0,1,1,1.2,3.258L8.76,15.139,36.7,25.435l27.941-10.3L46.51,8.473a1.736,1.736,0,0,1,1.2-3.258l22.555,8.293a1.736,1.736,0,0,1,0,3.258L37.3,28.912A1.7,1.7,0,0,1,36.7,29.019Z" transform="translate(4.94 12.621)"/><path class="a" d="M26.35,31.289a1.667,1.667,0,0,1-.6-.108L7.327,24.415a1.736,1.736,0,0,1,1.2-3.258L26.35,27.7l17.829-6.548a1.736,1.736,0,0,1,1.2,3.258L26.95,31.182A1.7,1.7,0,0,1,26.35,31.289Z" transform="translate(15.29 51.991)"/><path class="a" d="M3.735,43.1A1.736,1.736,0,0,1,2,41.367V9.235a1.735,1.735,0,0,1,3.47,0V41.367A1.736,1.736,0,0,1,3.735,43.1Z" transform="translate(4.94 18.525)"/><path class="a" d="M22.735,43.1A1.736,1.736,0,0,1,21,41.367V9.235a1.735,1.735,0,0,1,3.47,0V41.367A1.736,1.736,0,0,1,22.735,43.1Z" transform="translate(51.871 18.525)"/><path class="a" d="M13.235,20.35A1.736,1.736,0,0,1,11.5,18.615V4.735a1.735,1.735,0,1,1,3.47,0v13.88A1.736,1.736,0,0,1,13.235,20.35Z" transform="translate(28.405 7.41)"/><path class="a" d="M28.2,29.935a1.743,1.743,0,0,1-1.228-.507l-8.467-8.467a1.735,1.735,0,1,1,2.453-2.453l8.467,8.467a1.733,1.733,0,0,1-1.225,2.96Z" transform="translate(44.46 44.462)"/><path class="a" d="M4.3,29.935a1.733,1.733,0,0,1-1.228-2.96l8.467-8.467a1.735,1.735,0,0,1,2.453,2.453L5.521,29.428a1.729,1.729,0,0,1-1.225.507Z" transform="translate(6.323 44.462)"/><path class="a" d="M13.235,56.11A1.736,1.736,0,0,1,11.5,54.375V12.735a1.735,1.735,0,1,1,3.47,0v41.64A1.736,1.736,0,0,1,13.235,56.11Z" transform="translate(28.405 27.17)"/><path class="a" d="M16.94,13.88a6.94,6.94,0,1,1,6.94-6.94A6.947,6.947,0,0,1,16.94,13.88Zm0-10.41a3.47,3.47,0,1,0,3.47,3.47A3.476,3.476,0,0,0,16.94,3.47Z" transform="translate(24.7)"/><path class="a" d="M26.94,33.88a6.94,6.94,0,1,1,6.94-6.94A6.947,6.947,0,0,1,26.94,33.88Zm0-10.41a3.47,3.47,0,1,0,3.47,3.47A3.476,3.476,0,0,0,26.94,23.47Z" transform="translate(49.401 49.401)"/><path class="a" d="M6.94,33.88a6.94,6.94,0,1,1,6.94-6.94A6.947,6.947,0,0,1,6.94,33.88Zm0-10.41a3.47,3.47,0,1,0,3.47,3.47A3.476,3.476,0,0,0,6.94,23.47Z" transform="translate(0 49.401)"/></g></svg>