<svg xmlns="http://www.w3.org/2000/svg" xmlns:xlink="http://www.w3.org/1999/xlink" width="35.111" height="35.111" viewBox="0 0 35.111 35.111"><defs><style>.a{fill:#fff;}</style><linearGradient id="a" x2="0.889" y2="1" gradientUnits="objectBoundingBox"><stop offset="0" stop-color="#fd3a3b"/><stop offset="1" stop-color="#2082a7"/></linearGradient></defs><path class="a" d="M35.71,4.5H8.4A3.913,3.913,0,0,0,4.5,8.4V35.71a3.913,3.913,0,0,0,3.9,3.9H35.71a3.913,3.913,0,0,0,3.9-3.9V8.4A3.913,3.913,0,0,0,35.71,4.5ZM9.377,13.278h3.9v-3.9H16.2v3.9h3.9V16.2H16.2v3.9H13.278V16.2h-3.9ZM35.71,35.71H8.4L35.71,8.4Zm-3.9-3.9V28.883H22.056v2.926Z" transform="translate(-4.5 -4.5)"/></svg>