<svg xmlns="http://www.w3.org/2000/svg" width="57.945" height="51.835" viewBox="0 0 57.945 51.835">
  <g id="cycling-2" transform="translate(-0.301 -26.999)">
    <path id="Path_712" data-name="Path 712" d="M46.629,56.2c-.139,0-.278,0-.416.008L44.151,45.334h1.232a1.7,1.7,0,0,0,0-3.4H38.546l-3.653-3.065L32.782,37.1A5.1,5.1,0,1,0,29.058,34.2a5.1,5.1,0,0,0-6.075,1.332l-4.365,5.2a9.635,9.635,0,0,0-.3,11.987l-2.644,4.354a11.317,11.317,0,1,0,6.834,12.143h4.2v1.132a1.7,1.7,0,1,0,3.4,0V67.991l8.878-14.622h3.236l.658,3.47a11.317,11.317,0,1,0,3.752-.64ZM11.318,75.438a7.922,7.922,0,1,1,2.564-15.416L9.866,66.635a1.7,1.7,0,0,0,1.451,2.579h7.737a7.935,7.935,0,0,1-7.737,6.225Zm3.017-9.62,2.447-4.031a7.918,7.918,0,0,1,2.273,4.031Zm12.375,0h-4.2a11.317,11.317,0,0,0-3.935-6.981l2.247-3.7,5.889,4.942Zm3.4-4.37V59.285h0a1.694,1.694,0,0,0-.1-.579l-1.936-5.337H35.01ZM27.424,49.974a2.821,2.821,0,0,1,.544-1.02l5.643-6.725,3.227,2.708a1.691,1.691,0,0,0,1.09.4H40.7l.879,4.64Zm19.2,25.465A7.922,7.922,0,0,1,43.519,60.23l1.441,7.6A1.7,1.7,0,0,0,48.3,67.2l-1.441-7.6a7.921,7.921,0,0,1-.227,15.839Z" transform="translate(0.301)" fill="#2484c6"/>
  </g>
</svg>
