<svg id="file" xmlns="http://www.w3.org/2000/svg" width="40.671" height="40.672" viewBox="0 0 40.671 40.672">
  <path id="Path_575" data-name="Path 575" d="M229.494,222a6.99,6.99,0,1,0,6.99,6.99A7,7,0,0,0,229.494,222Zm0,12.392a5.4,5.4,0,1,1,5.4-5.4A5.408,5.408,0,0,1,229.494,234.392Zm0,0" transform="translate(-204.868 -204.365)" fill="#2484c6"/>
  <path id="Path_576" data-name="Path 576" d="M40.383,36.074l-6.3-6.3A10.31,10.31,0,0,0,32.59,17.5V8.578h0a.793.793,0,0,0-.231-.562L24.574.233A.792.792,0,0,0,24.012,0a.005.005,0,0,1,0,0H2.883A2.386,2.386,0,0,0,.5,2.383V38.289a2.386,2.386,0,0,0,2.383,2.383H30.208a2.386,2.386,0,0,0,2.383-2.383V35.9l3.983,3.983a2.694,2.694,0,1,0,3.809-3.81Zm-15.257-2.71a8.738,8.738,0,1,1,8.738-8.738A8.748,8.748,0,0,1,25.126,33.364ZM24.807,2.712l5.072,5.072H25.6a.8.8,0,0,1-.794-.794ZM31,38.289a.8.8,0,0,1-.794.794H2.883a.8.8,0,0,1-.794-.794V2.383a.8.8,0,0,1,.794-.794H23.218v5.4A2.386,2.386,0,0,0,25.6,9.373H31v6.766A10.324,10.324,0,0,0,15.3,27.813H5.6a.794.794,0,0,0,0,1.589H15.74a.788.788,0,0,0,.216-.031,10.32,10.32,0,0,0,14.313,4.207l.733.733Zm8.257.471a1.106,1.106,0,0,1-1.562,0l-6.1-6.1A10.417,10.417,0,0,0,33.164,31.1l6.1,6.1A1.106,1.106,0,0,1,39.259,38.759Zm0,0" transform="translate(-0.5 0)" fill="#2484c6"/>
  <path id="Path_577" data-name="Path 577" d="M301.3,265a.794.794,0,1,0,0,1.589,1.988,1.988,0,0,1,1.986,1.986.794.794,0,1,0,1.589,0A3.578,3.578,0,0,0,301.3,265Zm0,0" transform="translate(-276.672 -243.953)" fill="#2484c6"/>
  <path id="Path_578" data-name="Path 578" d="M62.6,280.793H55.447a.794.794,0,0,0,0,1.589H62.6a.794.794,0,0,0,0-1.589Zm0,0" transform="translate(-50.351 -258.488)" fill="#2484c6"/>
  <path id="Path_579" data-name="Path 579" d="M63.066,211.461h-7.62a.794.794,0,1,0,0,1.589h7.62a.794.794,0,1,0,0-1.589Zm0,0" transform="translate(-50.351 -194.663)" fill="#2484c6"/>
  <path id="Path_580" data-name="Path 580" d="M181.294,419.461a.793.793,0,1,0,.562.233A.8.8,0,0,0,181.294,419.461Zm0,0" transform="translate(-166.201 -386.14)" fill="#2484c6"/>
  <path id="Path_581" data-name="Path 581" d="M62.181,419.461H55.447a.794.794,0,0,0,0,1.589h6.734a.794.794,0,0,0,0-1.589Zm0,0" transform="translate(-50.351 -386.14)" fill="#2484c6"/>
  <path id="Path_582" data-name="Path 582" d="M55.443,143.718a.795.795,0,1,0-.562-.233A.8.8,0,0,0,55.443,143.718Zm0,0" transform="translate(-50.347 -130.839)" fill="#2484c6"/>
  <path id="Path_583" data-name="Path 583" d="M109.706,142.129H97.833a.794.794,0,1,0,0,1.589h11.873a.794.794,0,1,0,0-1.589Zm0,0" transform="translate(-89.37 -130.839)" fill="#2484c6"/>
  <path id="Path_584" data-name="Path 584" d="M55.447,74.382h15.24a.794.794,0,1,0,0-1.589H55.447a.794.794,0,0,0,0,1.589Zm0,0" transform="translate(-50.351 -67.01)" fill="#2484c6"/>
</svg>
