<svg id="file-2" xmlns="http://www.w3.org/2000/svg" width="41.344" height="39.895" viewBox="0 0 41.344 39.895">
  <g id="Group_520" data-name="Group 520" transform="translate(22.164 18.32)">
    <g id="Group_519" data-name="Group 519">
      <path id="Path_697" data-name="Path 697" d="M285.02,253.274a7.172,7.172,0,0,0-.762-9.237,7.393,7.393,0,0,0-10.17,0,7.181,7.181,0,0,0,9.237,10.932l6.139,6,1.695-1.695Z" transform="translate(-271.979 -242.01)" fill="#2484c6"/>
    </g>
  </g>
  <g id="Group_522" data-name="Group 522" transform="translate(22.027 0.702)">
    <g id="Group_521" data-name="Group 521">
      <path id="Path_698" data-name="Path 698" d="M272,8.789v8.967h8.887Z" transform="translate(-272 -8.789)" fill="#2484c6"/>
    </g>
  </g>
  <g id="Group_524" data-name="Group 524">
    <g id="Group_523" data-name="Group 523">
      <path id="Path_699" data-name="Path 699" d="M29.323,35.143A9.846,9.846,0,0,1,22.45,32.4a9.089,9.089,0,0,1,0-13.222,10,10,0,0,1,9.3-2.339V11.766H19.6V0H0V39.895H31.755V34.811A10.068,10.068,0,0,1,29.323,35.143ZM4.86,14.1H22.034v2.338H4.86ZM17.173,30.466H4.86V28.129H17.173Zm0-4.675H4.86V23.454H17.173Zm0-4.675H4.86V18.778H17.173Z" fill="#2484c6"/>
    </g>
  </g>
</svg>
