<svg id="innovation" xmlns="http://www.w3.org/2000/svg" width="42.248" height="52.809" viewBox="0 0 42.248 52.809">
  <g id="Group_384" data-name="Group 384" transform="translate(9.851 9.851)">
    <g id="Group_383" data-name="Group 383" transform="translate(0)">
      <path id="Path_560" data-name="Path 560" d="M168.148,104.3h-2.343a8.149,8.149,0,0,0-.545-1.315l1.656-1.657a1.1,1.1,0,0,0,0-1.55l-1.95-1.95a1.1,1.1,0,0,0-1.55,0l-1.657,1.657a8.145,8.145,0,0,0-1.315-.545V96.6a1.1,1.1,0,0,0-1.1-1.1h-2.757a1.1,1.1,0,0,0-1.1,1.1v2.343a8.152,8.152,0,0,0-1.315.545l-1.657-1.657a1.1,1.1,0,0,0-1.55,0l-1.949,1.949a1.1,1.1,0,0,0,0,1.55l1.657,1.657a8.144,8.144,0,0,0-.545,1.315h-2.343a1.1,1.1,0,0,0-1.1,1.1v2.757a1.1,1.1,0,0,0,1.1,1.1h2.343a8.151,8.151,0,0,0,.545,1.315l-1.657,1.657a1.1,1.1,0,0,0,0,1.55l1.95,1.949a1.1,1.1,0,0,0,1.55,0l1.657-1.657a8.139,8.139,0,0,0,1.315.545v2.343a1.1,1.1,0,0,0,1.1,1.1h2.757a1.1,1.1,0,0,0,1.1-1.1v-2.343a8.145,8.145,0,0,0,1.315-.545l1.657,1.657a1.1,1.1,0,0,0,1.55,0l1.949-1.949a1.1,1.1,0,0,0,0-1.55l-1.657-1.657a8.146,8.146,0,0,0,.545-1.315h2.343a1.1,1.1,0,0,0,1.1-1.1V105.4A1.1,1.1,0,0,0,168.148,104.3Zm-.451,3.4h-2.481a.774.774,0,0,0-.753.6,6.614,6.614,0,0,1-.823,1.987.774.774,0,0,0,.11.955L165.5,113l-1.312,1.312-1.755-1.755a.773.773,0,0,0-.955-.11,6.622,6.622,0,0,1-1.987.823.773.773,0,0,0-.6.753v2.482h-1.855v-2.482a.774.774,0,0,0-.6-.753,6.611,6.611,0,0,1-1.987-.823.774.774,0,0,0-.955.11l-1.755,1.755L150.437,113l1.755-1.755a.774.774,0,0,0,.11-.955,6.618,6.618,0,0,1-.823-1.987.773.773,0,0,0-.753-.6h-2.481v-1.855h2.481a.774.774,0,0,0,.753-.6,6.618,6.618,0,0,1,.823-1.987.774.774,0,0,0-.11-.955l-1.755-1.755,1.312-1.312L153.5,101a.774.774,0,0,0,.955.11,6.614,6.614,0,0,1,1.987-.823.773.773,0,0,0,.6-.753V97.052H158.9v2.482a.774.774,0,0,0,.6.753,6.618,6.618,0,0,1,1.987.823.774.774,0,0,0,.955-.11l1.755-1.755,1.312,1.312-1.755,1.755a.773.773,0,0,0-.11.955,6.618,6.618,0,0,1,.823,1.987.774.774,0,0,0,.753.6H167.7Z" transform="translate(-146.697 -95.505)" fill="#2484c6"/>
    </g>
  </g>
  <g id="Group_386" data-name="Group 386" transform="translate(16.98 16.98)">
    <g id="Group_385" data-name="Group 385">
      <path id="Path_561" data-name="Path 561" d="M219.964,164.628a4.144,4.144,0,1,0,4.144,4.144A4.149,4.149,0,0,0,219.964,164.628Zm0,6.741a2.6,2.6,0,1,1,2.6-2.6A2.6,2.6,0,0,1,219.964,171.369Z" transform="translate(-215.82 -164.628)" fill="#2484c6"/>
    </g>
  </g>
  <g id="Group_388" data-name="Group 388" transform="translate(0 20.351)">
    <g id="Group_387" data-name="Group 387">
      <path id="Path_562" data-name="Path 562" d="M54.532,197.308H51.966a.774.774,0,0,0,0,1.547h2.566a.774.774,0,0,0,0-1.547Z" transform="translate(-51.192 -197.308)" fill="#2484c6"/>
    </g>
  </g>
  <g id="Group_390" data-name="Group 390" transform="translate(38.135 20.351)">
    <g id="Group_389" data-name="Group 389">
      <path id="Path_563" data-name="Path 563" d="M424.267,197.308H421.7a.774.774,0,0,0,0,1.547h2.566a.774.774,0,0,0,0-1.547Z" transform="translate(-420.927 -197.308)" fill="#2484c6"/>
    </g>
  </g>
  <g id="Group_392" data-name="Group 392" transform="translate(5.96 32.926)">
    <g id="Group_391" data-name="Group 391" transform="translate(0)">
      <path id="Path_564" data-name="Path 564" d="M112.117,319.459a.774.774,0,0,0-1.094,0l-1.815,1.815a.774.774,0,0,0,1.094,1.094l1.815-1.815A.774.774,0,0,0,112.117,319.459Z" transform="translate(-108.981 -319.232)" fill="#2484c6"/>
    </g>
  </g>
  <g id="Group_394" data-name="Group 394" transform="translate(32.926 5.961)">
    <g id="Group_393" data-name="Group 393">
      <path id="Path_565" data-name="Path 565" d="M373.559,58.018a.774.774,0,0,0-1.094,0l-1.815,1.815a.774.774,0,0,0,1.094,1.094l1.815-1.815A.774.774,0,0,0,373.559,58.018Z" transform="translate(-370.423 -57.791)" fill="#2484c6"/>
    </g>
  </g>
  <g id="Group_396" data-name="Group 396" transform="translate(20.351)">
    <g id="Group_395" data-name="Group 395">
      <path id="Path_566" data-name="Path 566" d="M249.275,0a.774.774,0,0,0-.774.774V3.34a.774.774,0,1,0,1.547,0V.774A.774.774,0,0,0,249.275,0Z" transform="translate(-248.501)" fill="#2484c6"/>
    </g>
  </g>
  <g id="Group_398" data-name="Group 398" transform="translate(32.926 32.926)">
    <g id="Group_397" data-name="Group 397">
      <path id="Path_567" data-name="Path 567" d="M373.559,321.273l-1.815-1.815a.774.774,0,0,0-1.094,1.094l1.815,1.815a.774.774,0,1,0,1.094-1.094Z" transform="translate(-370.423 -319.232)" fill="#2484c6"/>
    </g>
  </g>
  <g id="Group_400" data-name="Group 400" transform="translate(5.96 5.961)">
    <g id="Group_399" data-name="Group 399" transform="translate(0)">
      <path id="Path_568" data-name="Path 568" d="M112.117,59.832,110.3,58.018a.774.774,0,0,0-1.094,1.094l1.815,1.815a.774.774,0,0,0,1.094-1.094Z" transform="translate(-108.981 -57.791)" fill="#2484c6"/>
    </g>
  </g>
  <g id="Group_402" data-name="Group 402" transform="translate(22.156 5.626)">
    <g id="Group_401" data-name="Group 401">
      <path id="Path_569" data-name="Path 569" d="M280.4,68.149a15.557,15.557,0,0,0-13.534-13.6.774.774,0,0,0-.187,1.536,13.933,13.933,0,0,1,12.185,12.242.774.774,0,0,0,.767.684.8.8,0,0,0,.091-.005A.773.773,0,0,0,280.4,68.149Z" transform="translate(-265.999 -54.545)" fill="#2484c6"/>
    </g>
  </g>
  <g id="Group_404" data-name="Group 404" transform="translate(5.584 5.627)">
    <g id="Group_403" data-name="Group 403" transform="translate(0)">
      <path id="Path_570" data-name="Path 570" d="M135.614,71.091a.773.773,0,0,0-.865.67A13.94,13.94,0,0,1,128.3,81.845a5.2,5.2,0,0,0-2.459,4.427v3.184H115.9V86.2a5.094,5.094,0,0,0-2.383-4.309,13.994,13.994,0,0,1,5.644-25.8.774.774,0,1,0-.19-1.535A15.54,15.54,0,0,0,112.7,83.208a3.536,3.536,0,0,1,1.65,2.993v3.367a2.013,2.013,0,0,0-1.354,1.9v1.1a2,2,0,0,0,.429,1.238A2,2,0,0,0,113,95.045v1.1a2.014,2.014,0,0,0,2.011,2.011h2.432v1.749a1.832,1.832,0,0,0,1.829,1.83h3.2a1.831,1.831,0,0,0,1.829-1.83V98.159h2.432a2.014,2.014,0,0,0,2.011-2.011v-1.1a2,2,0,0,0-.429-1.238,2,2,0,0,0,.429-1.238v-1.1a2.013,2.013,0,0,0-1.354-1.9v-3.3a3.665,3.665,0,0,1,1.735-3.116,15.481,15.481,0,0,0,7.163-11.2A.773.773,0,0,0,135.614,71.091ZM122.749,99.908a.286.286,0,0,1-.282.282h-3.2a.286.286,0,0,1-.282-.282V98.159h3.761Zm4.444-3.76a.47.47,0,0,1-.464.464h-11.72a.47.47,0,0,1-.464-.464v-1.1a.47.47,0,0,1,.464-.464h11.72a.47.47,0,0,1,.464.464Zm0-3.578a.47.47,0,0,1-.464.464h-11.72a.47.47,0,0,1-.464-.464v-1.1a.47.47,0,0,1,.464-.464h11.72a.47.47,0,0,1,.464.464Z" transform="translate(-105.328 -54.556)" fill="#2484c6"/>
    </g>
  </g>
</svg>
