<svg id="outline" xmlns="http://www.w3.org/2000/svg" width="64.756" height="60.5" viewBox="0 0 64.756 60.5">
  <path id="Path_572" data-name="Path 572" d="M22.235,41.268l1.7,4.075-2.641,3.4A7.578,7.578,0,1,0,23,50.066l1.892-2.431,2.743,6.584h8.275V46.665h6.853l1,2.248a7.585,7.585,0,1,0,1.971-.88l-1.567-3.527h0L40.8,36.951h9.132a1.079,1.079,0,0,0,1.079-1.079V32.634H48.857v2.159H46.7V31.555a1.079,1.079,0,0,0-1.079-1.079H41.626l-9.441-6.294a1.079,1.079,0,0,0-1.362.135L21.109,34.03a1.079,1.079,0,0,0-.313.763v6.476ZM17.558,60.695a5.4,5.4,0,0,1,0-10.793,5.337,5.337,0,0,1,2.374.577l-3.227,4.156,1.705,1.325,3.229-4.152A5.342,5.342,0,0,1,22.955,55.3a5.4,5.4,0,0,1-5.4,5.4Zm27.09-9.777,2.141,4.819,1.973-.876-2.144-4.825a5.32,5.32,0,0,1,1.16-.133,5.431,5.431,0,1,1-3.13,1.016ZM29.43,52.061h-.359l-2.249-5.4H29.43Zm0-7.555H25.923l-1.349-3.238H29.43Zm12.369,0H35.906V35.872a1.079,1.079,0,0,0-1.079-1.079h-3.87L32.8,32.944,38.28,36.6ZM22.955,35.239l8.771-8.771L40.7,32.453a1.086,1.086,0,0,0,.6.181H44.54v2.159H39.467l-6.2-4.136a1.079,1.079,0,0,0-1.362.135l-4.317,4.317a1.079,1.079,0,0,0,.766,1.842h5.4v15.11H31.589V40.189a1.079,1.079,0,0,0-1.079-1.079H22.955Z" transform="translate(-1.369 -2.415)" fill="#2484c6"/>
  <path id="Path_573" data-name="Path 573" d="M35.317,26.634A4.317,4.317,0,1,0,31,22.317,4.317,4.317,0,0,0,35.317,26.634Zm0-6.476a2.159,2.159,0,1,1-2.159,2.159A2.159,2.159,0,0,1,35.317,20.159Z" transform="translate(0.299 -2.891)" fill="#2484c6"/>
  <path id="Path_574" data-name="Path 574" d="M57.705,8.375a7.958,7.958,0,0,0-14.325.233,5.686,5.686,0,0,0-1.8-.291A5.5,5.5,0,0,0,36,13.713a5.2,5.2,0,0,0,.2,1.361,1.079,1.079,0,0,0,1.041.8H62.823a1.079,1.079,0,0,0,1.041-.8,5.2,5.2,0,0,0,.2-1.361,5.5,5.5,0,0,0-6.356-5.338ZM38.159,13.713a3.339,3.339,0,0,1,3.426-3.238,3.544,3.544,0,0,1,1.866.532,1.079,1.079,0,0,0,1.619-.665A5.757,5.757,0,0,1,56.026,9.97a1.079,1.079,0,0,0,1.358.7,3.579,3.579,0,0,1,1.093-.19A3.339,3.339,0,0,1,61.9,13.713Z" transform="translate(0.695 -4)" fill="#2484c6"/>
  <rect id="Rectangle_214" data-name="Rectangle 214" width="15.11" height="2.159" transform="translate(3.238 22.664)" fill="#2484c6"/>
  <rect id="Rectangle_215" data-name="Rectangle 215" width="15.11" height="2.159" transform="translate(0 26.981)" fill="#2484c6"/>
</svg>
