<svg xmlns="http://www.w3.org/2000/svg" width="42.871" height="37.155" viewBox="0 0 42.871 37.155">
  <path id="Path_696" data-name="Path 696" d="M40.728,39.145h-7.86V37a5.007,5.007,0,0,0-5-5H15a5.007,5.007,0,0,0-5,5v2.144H2.144A2.144,2.144,0,0,0,0,41.289v14.29a2.144,2.144,0,0,0,1.429,2.012v9.42a2.144,2.144,0,0,0,2.144,2.144H39.3a2.144,2.144,0,0,0,2.144-2.144v-9.42a2.144,2.144,0,0,0,1.429-2.012V41.289A2.144,2.144,0,0,0,40.728,39.145ZM11.432,37A3.577,3.577,0,0,1,15,33.429H27.866A3.577,3.577,0,0,1,31.439,37v2.144H29.981L30.01,37a2.148,2.148,0,0,0-2.144-2.144H14.978A2.148,2.148,0,0,0,12.835,37v.007l.019,2.136H11.432Zm17.148-.01-.029,2.154H14.283L14.261,37a.715.715,0,0,1,.715-.715H27.866A.714.714,0,0,1,28.581,36.992Zm11.432,30.02a.715.715,0,0,1-.715.715H3.573a.715.715,0,0,1-.715-.715V57.723h5v2.144a.715.715,0,0,0,.715.715h2.858a.715.715,0,0,0,.715-.715V57.723H30.724v2.144a.715.715,0,0,0,.715.715H34.3a.715.715,0,0,0,.715-.715V57.723h5ZM9.289,59.152V55.579a.7.7,0,0,1,.219-.509.68.68,0,0,1,.5-.206.715.715,0,0,1,.715.715v3.573Zm22.865,0V55.579a.715.715,0,0,1,.715-.715.7.7,0,0,1,.509.219.689.689,0,0,1,.205.5v3.573Zm9.289-3.573a.715.715,0,0,1-.715.715H35.011v-.715a2.144,2.144,0,1,0-4.287,0v.715H12.147v-.715a2.144,2.144,0,1,0-4.287,0v.715H2.144a.715.715,0,0,1-.715-.715V41.289a.715.715,0,0,1,.715-.715H40.728a.715.715,0,0,1,.715.715Z" transform="translate(0 -32)" fill="#2484c6"/>
</svg>
