<svg xmlns="http://www.w3.org/2000/svg" width="51.211" height="52.234" viewBox="0 0 51.211 52.234">
  <g id="project-management" transform="translate(-4.561 0.005)">
    <g id="Group_529" data-name="Group 529" transform="translate(43.681 26.152)">
      <g id="Group_528" data-name="Group 528">
        <path id="Path_716" data-name="Path 716" d="M355.709,233.705a.9.9,0,0,0-1.605.412l-.5,3.488a.882.882,0,0,1-.047.131,16.121,16.121,0,0,0,2.193-3.973Z" transform="translate(-353.559 -233.346)" fill="#2484c6"/>
      </g>
    </g>
    <g id="Group_531" data-name="Group 531" transform="translate(14.634 4.717)">
      <g id="Group_530" data-name="Group 530">
        <path id="Path_717" data-name="Path 717" d="M122.631,68.583a.992.992,0,0,1-.126-.008l-5.327-.761a.9.9,0,0,1-.76-1.015h0l.5-3.488a.9.9,0,0,0-1.425-.844l-2.819,2.114a.9.9,0,0,1-1.255-.179h0l-3.228-4.3a.9.9,0,0,1,.179-1.255l2.818-2.114a.9.9,0,0,0-.412-1.605l-3.488-.5a.9.9,0,0,1-.761-1.014h0l.761-5.326a.9.9,0,0,1,1.014-.761h0l3.488.5a.891.891,0,0,0,.9-.431.878.878,0,0,0-.054-1l-2.112-2.818a.9.9,0,0,1,.179-1.255l.508-.381a16.444,16.444,0,0,0-2.47.066,16.141,16.141,0,0,0-6.871,29.632,5.142,5.142,0,0,1,2.432,4.307v3.624a2.69,2.69,0,0,0,2.69,2.69h7.174a2.69,2.69,0,0,0,2.69-2.69V76.219a5.283,5.283,0,0,1,2.484-4.414,16.249,16.249,0,0,0,3.742-3.354A.9.9,0,0,1,122.631,68.583ZM111.473,79.768h-1.794v-2.69h1.794Zm-1.794-4.484A5.725,5.725,0,0,0,106,69.94a12.554,12.554,0,0,1-2.117-22.316l.951,1.517a10.761,10.761,0,0,0,1.813,19.13,7.5,7.5,0,0,1,4.823,7.013Z" transform="translate(-94.426 -42.12)" fill="#2484c6"/>
      </g>
    </g>
    <g id="Group_533" data-name="Group 533" transform="translate(27.197 49.539)">
      <g id="Group_532" data-name="Group 532">
        <path id="Path_718" data-name="Path 718" d="M206.5,441.987v.9a1.793,1.793,0,0,0,1.793,1.794h3.587a1.793,1.793,0,0,0,1.793-1.794v-.9Z" transform="translate(-206.503 -441.987)" fill="#2484c6"/>
      </g>
    </g>
    <g id="Group_535" data-name="Group 535" transform="translate(5.438 23.229)">
      <g id="Group_534" data-name="Group 534" transform="translate(0)">
        <path id="Path_719" data-name="Path 719" d="M28.543,219.23a16.973,16.973,0,0,1-1.533-1.12,5.369,5.369,0,1,1-5.423-7.8,17.078,17.078,0,0,1-.71-3.041l-.157.746a1.793,1.793,0,0,1-2.772,1.108l-1.865-1.281-1.634,1.63,1.284,1.867a1.793,1.793,0,0,1-1.107,2.773l-2.236.471v2.131l2.236.471a1.793,1.793,0,0,1,1.107,2.774l-1.283,1.857,1.634,1.63,1.863-1.284a1.793,1.793,0,0,1,2.773,1.107l.47,2.239h2.132l.47-2.236a1.794,1.794,0,0,1,2.773-1.107l1.863,1.281,1.924-1.923A4.377,4.377,0,0,0,28.543,219.23Z" transform="translate(-12.391 -207.267)" fill="#2484c6"/>
      </g>
    </g>
    <g id="Group_537" data-name="Group 537" transform="translate(27.197 45.952)">
      <g id="Group_536" data-name="Group 536">
        <rect id="Rectangle_252" data-name="Rectangle 252" width="7.174" height="1.793" fill="#2484c6"/>
      </g>
    </g>
    <g id="Group_539" data-name="Group 539" transform="translate(28.632 2.133)">
      <g id="Group_538" data-name="Group 538">
        <path id="Path_720" data-name="Path 720" d="M243.846,32.389a2.69,2.69,0,0,1-1.233-4.816l2.1-1.576-2.152-2.87-2.1,1.576a2.69,2.69,0,0,1-4.278-2.529l.371-2.6L233,19.067l-.371,2.6a2.69,2.69,0,0,1-4.816,1.233l-1.576-2.1-2.87,2.152,1.576,2.1a2.69,2.69,0,0,1-2.533,4.277l-2.6-.371-.509,3.551,2.6.371a2.69,2.69,0,0,1,1.233,4.816l-2.1,1.576,2.152,2.87,2.1-1.576a2.69,2.69,0,0,1,4.277,2.533l-.371,2.6,3.558.509.371-2.6a2.69,2.69,0,0,1,4.816-1.233l1.576,2.1,2.87-2.152-1.581-2.1a2.69,2.69,0,0,1,2.53-4.277l2.6.371.507-3.55Zm-10.97,5.625a5.38,5.38,0,1,1,5.38-5.38A5.38,5.38,0,0,1,232.876,38.014Z" transform="translate(-219.303 -19.067)" fill="#2484c6"/>
      </g>
    </g>
    <g id="Group_541" data-name="Group 541" transform="translate(47.822 33.398)">
      <g id="Group_540" data-name="Group 540">
        <rect id="Rectangle_253" data-name="Rectangle 253" width="6.277" height="1.793" fill="#2484c6"/>
      </g>
    </g>
    <g id="Group_543" data-name="Group 543" transform="translate(46.351 38.089)">
      <g id="Group_542" data-name="Group 542" transform="translate(0 0)">
        <rect id="Rectangle_254" data-name="Rectangle 254" width="1.793" height="7.004" transform="matrix(0.64, -0.768, 0.768, 0.64, 0, 1.378)" fill="#2484c6"/>
      </g>
    </g>
    <g id="Group_545" data-name="Group 545" transform="translate(42.441 40.572)">
      <g id="Group_544" data-name="Group 544">
        <rect id="Rectangle_255" data-name="Rectangle 255" width="1.793" height="6.277" fill="#2484c6"/>
      </g>
    </g>
    <g id="Group_547" data-name="Group 547" transform="translate(4.56 13.696)">
      <g id="Group_546" data-name="Group 546" transform="translate(0 0)">
        <rect id="Rectangle_256" data-name="Rectangle 256" width="7.395" height="1.793" transform="translate(0 1.793) rotate(-14.035)" fill="#2484c6"/>
      </g>
    </g>
    <g id="Group_549" data-name="Group 549" transform="translate(6.05 4.87)">
      <g id="Group_548" data-name="Group 548" transform="translate(0 0)">
        <rect id="Rectangle_257" data-name="Rectangle 257" width="1.793" height="7.714" transform="matrix(0.581, -0.814, 0.814, 0.581, 0, 1.459)" fill="#2484c6"/>
      </g>
    </g>
    <g id="Group_551" data-name="Group 551" transform="translate(13.733 -0.005)">
      <g id="Group_550" data-name="Group 550" transform="translate(0 0)">
        <rect id="Rectangle_258" data-name="Rectangle 258" width="1.793" height="7.404" transform="matrix(0.969, -0.248, 0.248, 0.969, 0, 0.444)" fill="#2484c6"/>
      </g>
    </g>
  </g>
</svg>
