<svg xmlns="http://www.w3.org/2000/svg" width="52.182" height="52.264" viewBox="0 0 52.182 52.264">
  <g id="promote" transform="translate(0 0.078)">
    <path id="Path_706" data-name="Path 706" d="M301.529,120.5H315.8a1.529,1.529,0,0,0,1.529-1.529v-3.058a8.649,8.649,0,0,0-3.185-6.706,8.139,8.139,0,0,1-10.956,0A8.649,8.649,0,0,0,300,115.912v3.058A1.529,1.529,0,0,0,301.529,120.5Z" transform="translate(-269.425 -98.072)" fill="#2484c6"/>
    <circle id="Ellipse_206" data-name="Ellipse 206" cx="5" cy="5" r="5" transform="translate(34.922 -0.078)" fill="#2484c6"/>
    <path id="Path_707" data-name="Path 707" d="M341.529,252A1.529,1.529,0,0,0,340,253.529v17.326a1.529,1.529,0,0,0,1.529,1.529h6.115a1.529,1.529,0,0,0,1.529-1.529V253.529A1.529,1.529,0,0,0,347.644,252Z" transform="translate(-305.348 -226.313)" fill="#2484c6"/>
    <path id="Path_708" data-name="Path 708" d="M200,303.529v12.23a1.529,1.529,0,0,0,1.529,1.529h6.115a1.529,1.529,0,0,0,1.529-1.529v-12.23A1.529,1.529,0,0,0,207.644,302h-6.115A1.529,1.529,0,0,0,200,303.529Z" transform="translate(-179.617 -271.217)" fill="#2484c6"/>
    <path id="Path_709" data-name="Path 709" d="M67.644,352H61.529A1.529,1.529,0,0,0,60,353.529v7.134a1.529,1.529,0,0,0,1.529,1.529h6.115a1.529,1.529,0,0,0,1.529-1.529v-7.134A1.529,1.529,0,0,0,67.644,352Z" transform="translate(-53.885 -316.121)" fill="#2484c6"/>
    <path id="Path_710" data-name="Path 710" d="M50.653,49.124H3.058V1.529A1.529,1.529,0,0,0,0,1.529V50.653a1.529,1.529,0,0,0,1.529,1.529H50.653a1.529,1.529,0,1,0,0-3.058Z" transform="translate(0 0.004)" fill="#2484c6"/>
    <path id="Path_711" data-name="Path 711" d="M61.528,139.268a1.524,1.524,0,0,0,1.081-.448l4.015-4.015,2.486,2.486a1.529,1.529,0,0,0,2.162,0l7.072-7.072v2.424a1.529,1.529,0,1,0,3.058,0v-6.115A1.529,1.529,0,0,0,79.873,125H73.758a1.529,1.529,0,0,0,0,3.058h2.424l-5.991,5.991-2.486-2.486a1.529,1.529,0,0,0-2.162,0l-5.1,5.1a1.529,1.529,0,0,0,1.081,2.61Z" transform="translate(-53.885 -112.257)" fill="#2484c6"/>
  </g>
</svg>
