<svg xmlns="http://www.w3.org/2000/svg" width="40" height="33.333" viewBox="0 0 40 33.333">
  <g id="suitcase" transform="translate(0 -2)">
    <path id="Path_713" data-name="Path 713" d="M19.667,9.5A1.667,1.667,0,0,1,18,7.833v-2.5H11.333v2.5A1.667,1.667,0,1,1,8,7.833v-2.5A3.337,3.337,0,0,1,11.333,2H18a3.337,3.337,0,0,1,3.333,3.333v2.5A1.667,1.667,0,0,1,19.667,9.5Z" transform="translate(5.333 0)" fill="#2484c6"/>
    <path id="Path_714" data-name="Path 714" d="M21.183,17.887a3.433,3.433,0,0,1-1.183.2,3.652,3.652,0,0,1-1.283-.233L0,11.62V24.337A4.581,4.581,0,0,0,4.583,28.92H35.417A4.581,4.581,0,0,0,40,24.337V11.62Z" transform="translate(0 6.413)" fill="#2484c6"/>
    <path id="Path_715" data-name="Path 715" d="M40,9.583V13.4L20.4,19.933a1.233,1.233,0,0,1-.8,0L0,13.4V9.583A4.581,4.581,0,0,1,4.583,5H35.417A4.581,4.581,0,0,1,40,9.583Z" transform="translate(-0.001 2)" fill="#2484c6"/>
  </g>
</svg>
