<svg id="team-leader" xmlns="http://www.w3.org/2000/svg" width="51.906" height="51.906" viewBox="0 0 51.906 51.906">
  <g id="Team_Leader_1_" transform="translate(3.041)">
    <g id="Group_525" data-name="Group 525" transform="translate(0 6.286)">
      <path id="Path_700" data-name="Path 700" d="M36.083,74.166a6.083,6.083,0,1,1,6.083-6.083A6.089,6.089,0,0,1,36.083,74.166Z" transform="translate(-30 -62)" fill="#2484c6"/>
    </g>
    <g id="Group_526" data-name="Group 526" transform="translate(33.658 6.286)">
      <path id="Path_701" data-name="Path 701" d="M368.083,74.166a6.083,6.083,0,1,1,6.083-6.083A6.089,6.089,0,0,1,368.083,74.166Z" transform="translate(-362 -62)" fill="#2484c6"/>
    </g>
    <g id="Group_527" data-name="Group 527" transform="translate(15.308)">
      <path id="Path_702" data-name="Path 702" d="M188.6,15.207a7.6,7.6,0,1,1,7.6-7.6A7.612,7.612,0,0,1,188.6,15.207Z" transform="translate(-181)" fill="#2484c6"/>
    </g>
    <path id="Path_703" data-name="Path 703" d="M163.165,151.516v10.491a1.521,1.521,0,1,1-3.041,0V151.516A10.63,10.63,0,0,0,151,162.007v9.124a1.52,1.52,0,0,0,1.521,1.521h3.407l1.161,14.017a1.52,1.52,0,0,0,1.515,1.393h6.083a1.52,1.52,0,0,0,1.515-1.393l1.161-14.017h3.407a1.52,1.52,0,0,0,1.521-1.521v-9.124A10.63,10.63,0,0,0,163.165,151.516Z" transform="translate(-138.733 -136.155)" fill="#2484c6"/>
  </g>
  <path id="Path_704" data-name="Path 704" d="M12.166,198.728V189.6a13.512,13.512,0,0,1,1.6-6.29A9.026,9.026,0,0,0,9.124,182,9.134,9.134,0,0,0,0,191.124v7.6a1.52,1.52,0,0,0,1.521,1.521H3.185l1.384,13.838a1.521,1.521,0,0,0,1.513,1.369h6.083a1.521,1.521,0,0,0,1.513-1.369L14.8,202.849a4.557,4.557,0,0,1-2.637-4.121Z" transform="translate(0 -163.549)" fill="#2484c6"/>
  <path id="Path_705" data-name="Path 705" d="M380.789,191.124A9.134,9.134,0,0,0,371.665,182a9.026,9.026,0,0,0-4.644,1.314,13.512,13.512,0,0,1,1.6,6.29v9.124a4.557,4.557,0,0,1-2.637,4.121l1.124,11.237a1.521,1.521,0,0,0,1.513,1.369h6.083a1.521,1.521,0,0,0,1.513-1.369l1.384-13.838h1.665a1.52,1.52,0,0,0,1.521-1.521Z" transform="translate(-328.883 -163.549)" fill="#2484c6"/>
</svg>
