<svg xmlns="http://www.w3.org/2000/svg" width="52.986" height="35.398" viewBox="0 0 52.986 35.398">
  <path id="XMLID_606_" d="M45.859,187.55a5.223,5.223,0,0,0,1.078-3.183v-1.833a5.251,5.251,0,1,0-10.5,0v1.833a5.222,5.222,0,0,0,1.077,3.181H31.639a7.428,7.428,0,0,0,2.306-5.381V177.4a7.451,7.451,0,0,0-14.9,0v4.766a7.429,7.429,0,0,0,2.306,5.381H15.473a5.223,5.223,0,0,0,1.077-3.181v-1.833a5.251,5.251,0,1,0-10.5,0v1.833a5.223,5.223,0,0,0,1.078,3.183A7.2,7.2,0,0,0,0,194.746v3.919A1.035,1.035,0,0,0,1.035,199.7H9.314v4.614a1.035,1.035,0,0,0,1.035,1.035h2.9a1.035,1.035,0,1,0,0-2.07H11.384v-5.042a8.628,8.628,0,0,1,7.938-8.589l5.625,13.631H22.56a1.035,1.035,0,1,0,0,2.07H42.637a1.035,1.035,0,0,0,1.035-1.035V199.7h8.279a1.035,1.035,0,0,0,1.035-1.035v-3.919A7.2,7.2,0,0,0,45.859,187.55Zm-7.353-3.183v-1.833a3.181,3.181,0,1,1,6.362,0v1.833a3.181,3.181,0,1,1-6.362,0ZM26.493,172.02a5.388,5.388,0,0,1,5.381,5.381v.01h0a8.764,8.764,0,0,1-4.81-1.435,1.034,1.034,0,0,0-1.133,0,8.764,8.764,0,0,1-4.81,1.435h0v-.01A5.388,5.388,0,0,1,26.493,172.02Zm-5.381,10.147v-2.686h0a10.823,10.823,0,0,0,5.377-1.426,10.823,10.823,0,0,0,5.377,1.426h0v2.686a5.381,5.381,0,1,1-10.763,0Zm-12.993.367a3.181,3.181,0,1,1,6.362,0v1.833a3.181,3.181,0,1,1-6.362,0Zm1.213,15.1H2.07v-2.884A5.133,5.133,0,0,1,7.2,189.618h6.491a10.685,10.685,0,0,0-4.357,8.012Zm12.233-8.012h3.894V192.1a1.035,1.035,0,0,0,2.07,0v-2.484h3.909L26.493,201.6l-4.944-11.982ZM41.6,203.279H28.04l5.625-13.631a8.628,8.628,0,0,1,7.938,8.589Zm9.314-5.649H43.655a10.685,10.685,0,0,0-4.357-8.012h6.491a5.133,5.133,0,0,1,5.127,5.127Z" transform="translate(0 -169.95)" fill="#2484c6"/>
</svg>
