<svg xmlns="http://www.w3.org/2000/svg" width="52.977" height="52.986" viewBox="0 0 52.977 52.986">
  <path id="XMLID_1911_" d="M52.717,22.285A1.036,1.036,0,0,0,51.781,22L42.863,23.8a1.035,1.035,0,0,0-.528,1.746l1.207,1.207-4.735,4.735L35.141,27.82a1.035,1.035,0,0,0-1.463,0l-4.5,4.5,1.687-6.063a4.859,4.859,0,0,0-2.972-5.848l1.349-3.853c.372.033.744.049,1.111.049a12.866,12.866,0,0,0,8.2-2.965l.247-.2a2.883,2.883,0,0,0,.472-3.989,2.871,2.871,0,0,0-4.108-.455l-.28.233a7.126,7.126,0,0,1-1.342.88,4.291,4.291,0,0,1-4.912-.864A4.729,4.729,0,1,0,23.419,7.5a5.391,5.391,0,0,0-2.782,1.569,1.034,1.034,0,0,0-.122.125,14.038,14.038,0,0,1-7.033,4.648,2.862,2.862,0,0,0-1.7,1.349L9.657,13.07a2.383,2.383,0,0,0-3.366,0L3.516,15.845h0L.74,18.621a2.38,2.38,0,0,0,0,3.366l7.648,7.648a2.38,2.38,0,0,0,3.366,0l2.874-2.874-1.363,3.573a1.035,1.035,0,1,0,1.934.738l3.394-8.9h7.6A2.782,2.782,0,0,1,28.872,25.7l-2.351,8.449a.885.885,0,0,1-.85.646.882.882,0,0,1-.871-1.021l1.251-7.866a1.035,1.035,0,0,0-1.022-1.2H22.575a1.035,1.035,0,0,0-.923.568c-.06.119-6.065,11.991-8.088,16a1.063,1.063,0,0,1-1.094.569l-.049-.007a1.012,1.012,0,0,1-.81-1.364l.638-1.672a1.035,1.035,0,1,0-1.934-.738l-.638,1.672a3.082,3.082,0,0,0,2.466,4.152l.049.007a3.139,3.139,0,0,0,3.22-1.688c1.767-3.5,6.574-13.008,7.8-15.432h.6l-1.061,6.668a2.951,2.951,0,0,0,2.017,3.275L13.246,48.252a1.035,1.035,0,0,0,0,1.463l2.968,2.968a1.035,1.035,0,0,0,1.463,0l5.706-5.706a1.035,1.035,0,1,0-1.464-1.464l-4.974,4.974-1.5-1.5L34.409,30.015l3.666,3.666a1.035,1.035,0,0,0,1.463,0l6.2-6.2a1.035,1.035,0,0,0,0-1.464l-.573-.573,5.5-1.107-1.107,5.5-.852-.852a1.035,1.035,0,0,0-1.464,0l-8.435,8.435-3.666-3.666a1.035,1.035,0,0,0-1.464,0l-5.9,5.9a1.035,1.035,0,1,0,1.464,1.464l5.172-5.172,3.666,3.666a1.035,1.035,0,0,0,1.464,0l8.435-8.435,1.485,1.485a1.035,1.035,0,0,0,1.746-.528L53,23.221A1.035,1.035,0,0,0,52.717,22.285ZM27.239,2.07a2.655,2.655,0,1,1-2.655,2.655A2.658,2.658,0,0,1,27.239,2.07ZM17,20.412,15.74,19.152q.9-.293,1.761-.668Zm-3.492-3.59a.8.8,0,0,1,.548-.992A16.141,16.141,0,0,0,18.773,13.6l-.584,2.247A17.847,17.847,0,0,1,14.5,17.37c-.024.007-.049.013-.074.018a.794.794,0,0,1-.542-.093l-.3-.3A.787.787,0,0,1,13.507,16.822ZM7.755,14.533a.311.311,0,0,1,.439,0l3.772,3.772a2.845,2.845,0,0,0,.619.619l3.257,3.257a.311.311,0,0,1,0,.439L13.8,24.664l-2.273-2.273.433-.433a1.035,1.035,0,0,0,0-1.464L9.628,18.165a1.035,1.035,0,0,0-1.464,0l-.433.433L5.711,16.577Zm1.416,7.284a.388.388,0,0,1-.549,0h0L8.305,21.5a.388.388,0,0,1,0-.549L8.9,20.36l.866.866Zm1.119,6.354a.31.31,0,0,1-.439,0L2.2,20.523a.31.31,0,0,1,0-.439l2.044-2.044,2.118,2.118a2.461,2.461,0,0,0,.477,2.806l.316.316h0a2.461,2.461,0,0,0,2.806.477l2.37,2.37ZM25.072,20.1H19.218l2.126-8.172a3.317,3.317,0,0,1,3.21-2.482,3.28,3.28,0,0,1,2.429,1.059,6.38,6.38,0,0,0,7.5,1.442,9.188,9.188,0,0,0,1.732-1.136l.28-.233a.8.8,0,0,1,1.147.128.831.831,0,0,1-.157,1.132l-.246.2A10.734,10.734,0,0,1,28.7,14.405a1.034,1.034,0,0,0-1.136.681L25.808,20.1Z" transform="translate(-0.043)" fill="#2484c6"/>
</svg>
