<svg xmlns="http://www.w3.org/2000/svg" width="36.858" height="36.858" viewBox="0 0 36.858 36.858"><defs><style>.a{fill:#2484c6;}</style></defs><g transform="translate(0 0)"><g transform="translate(0 22.461)"><path class="a" d="M11.212,324.368a4.127,4.127,0,0,0-5.885-3.455L4.5,321.3a1.08,1.08,0,0,1-1.226-1.739l6.908-6.908a7.2,7.2,0,1,0,1.077,12.493Z" transform="translate(0 -312.007)"/><path class="a" d="M104.542,342.348a6.288,6.288,0,0,1,5.68,4.8,7.2,7.2,0,0,0-.917-9.059q-.128-.128-.261-.248Z" transform="translate(-97.016 -335.986)"/></g><path class="a" d="M192.052,117.625a4.319,4.319,0,1,0,6.108,0A4.319,4.319,0,0,0,192.052,117.625Zm3.818,3.818a1.08,1.08,0,1,1,0-1.527A1.08,1.08,0,0,1,195.87,121.443Z" transform="translate(-177.053 -107.983)"/><path class="a" d="M303.758,229.332a6.5,6.5,0,0,1-.827.7l3.019,3.019q.762-.766,1.544-1.51l-3.036-3.036A6.477,6.477,0,0,1,303.758,229.332Z" transform="translate(-281.124 -212.054)"/><g transform="translate(22.918 23.027)"><path class="a" d="M318.367,323.059l3.028,3.028a.576.576,0,0,0,.972-.294l.3-1.49,1.49-.3a.576.576,0,0,0,.294-.972l-3.161-3.161-.942,1Q319.338,321.944,318.367,323.059Z" transform="translate(-318.367 -319.872)"/></g><path class="a" d="M95.368,216.444a6.448,6.448,0,0,1-1.283-1.827q-1.287,1.131-2.625,2.2l-1.465,1.173q-.9.723-1.746,1.516A9.346,9.346,0,0,1,98.41,229.672q.793-.842,1.516-1.746l1.173-1.465q1.966-2.457,4.121-4.746l-3.6-3.6A6.483,6.483,0,0,1,95.368,216.444Z" transform="translate(-81.896 -199.167)"/><g transform="translate(27.342 18.593)"><path class="a" d="M381.881,259.307l-1.523,1.371-.536.482,5.221,5.221a.576.576,0,0,0,.972-.294l.3-1.49,1.49-.3a.576.576,0,0,0,.294-.972l-5.05-5.05q-.589.509-1.167,1.029Z" transform="translate(-379.822 -258.278)"/></g><path class="a" d="M291.174,2.108a19.484,19.484,0,0,0-1.7,1.945q-1.061,1.387-2.185,2.721a6.476,6.476,0,0,1,3.63,7.6l3.646,3.646q2.341-2.108,4.849-4.026a19.477,19.477,0,0,0,1.945-1.7A7.2,7.2,0,1,0,291.174,2.108Z" transform="translate(-266.605 0)"/></g></svg>