<svg xmlns="http://www.w3.org/2000/svg" width="41.866" height="39.252" viewBox="0 0 41.866 39.252"><defs><style>.a{fill:#2484c6;}</style></defs><g transform="translate(0)"><g transform="translate(0)"><path class="a" d="M333.4,32.132l1.056-6.334h1.636l1.962,9.812h2.5L338.3,24.331a1.227,1.227,0,0,0-1.2-.986h-2.232l.989-5.931a1.226,1.226,0,0,0-2.42-.4L330.982,31.73a1.184,1.184,0,0,0,1.009,1.407A1.168,1.168,0,0,0,333.4,32.132Z" transform="translate(-303.9 -15.983)"/><path class="a" d="M103.58,295.532h2.453a1.227,1.227,0,0,0,1.227-1.227V283.266a4.906,4.906,0,0,0-4.906-4.906H92.459a4.85,4.85,0,0,1-2.453-.682v3.135a2.453,2.453,0,0,0,2.453,2.453h9.894v11.039A1.227,1.227,0,0,0,103.58,295.532Z" transform="translate(-82.646 -256.28)"/><path class="a" d="M9.813,133.021v2.453H8.586a1.227,1.227,0,1,0,0,2.453h4.906a1.227,1.227,0,0,0,0-2.453H12.266v-2.453H14.8a2.453,2.453,0,1,0,0-4.906H4.907v-3.68c0-12.413-2.477-17.509-2.582-17.72a1.227,1.227,0,1,0-2.194,1.1c.024.047,2.324,4.784,2.324,16.623v4.906a3.68,3.68,0,0,0,3.68,3.68Z" transform="translate(0 -98.675)"/><path class="a" d="M322.912,286.022H307.425a7.324,7.324,0,0,1,1.462,2.453H316.7v13.492a1.226,1.226,0,1,0,2.453,0V288.475h3.761a1.227,1.227,0,0,0,0-2.453Z" transform="translate(-282.273 -263.941)"/></g><ellipse class="a" cx="3.68" cy="3.68" rx="3.68" ry="3.68" transform="translate(6.215 1.23)"/><path class="a" d="M91.006,123.475v6.133a2.453,2.453,0,0,0,2.453,2.453h8.586a1.227,1.227,0,0,0,1.227-1.227,3.68,3.68,0,0,0-3.68-3.68h-3.68v-3.68a2.453,2.453,0,1,0-4.906,0Z" transform="translate(-83.564 -112.433)"/></g></svg>