<svg xmlns="http://www.w3.org/2000/svg" width="1551.963" height="355.368" viewBox="0 0 1551.963 355.368"><defs><style>.a{fill:#fff;}.b{fill:#2484c6;}</style></defs><g transform="translate(-42 -46.501)"><path class="a" d="M2.5,0l.825,2.783L5,5,2.5,4.433,0,5,1.675,2.783Z" transform="translate(202 144)"/><path class="b" d="M2.5,0l.825,2.783L5,5,2.5,4.433,0,5,1.675,2.783Z" transform="translate(47 283) rotate(180)"/><path class="b" d="M2.5,0l.825,2.783L5,5,2.5,4.433,0,5,1.675,2.783Z" transform="matrix(-0.875, -0.485, 0.485, -0.875, 295.748, 325.176)"/><path class="b" d="M2.5,0l.825,2.783L5,5,2.5,4.433,0,5,1.675,2.783Z" transform="matrix(-0.53, -0.848, 0.848, -0.53, 430.843, 63.449)"/><path class="b" d="M2.5,0l.825,2.783L5,5,2.5,4.433,0,5,1.675,2.783Z" transform="translate(891.767 156.805) rotate(-91)"/><path class="a" d="M2.5,0l.825,2.783L5,5,2.5,4.433,0,5,1.675,2.783Z" transform="translate(375 224)"/><path class="a" d="M2.5,0l.825,2.783L5,5,2.5,4.433,0,5,1.675,2.783Z" transform="translate(1305 227)"/><path class="a" d="M2.5,0l.825,2.783L5,5,2.5,4.433,0,5,1.675,2.783Z" transform="matrix(0.695, 0.719, -0.719, 0.695, 935.57, 65.158)"/><path class="a" d="M2.5,0l.825,2.783L5,5,2.5,4.433,0,5,1.675,2.783Z" transform="translate(107 168) rotate(180)"/><path class="a" d="M2.5,0l.825,2.783L5,5,2.5,4.433,0,5,1.675,2.783Z" transform="matrix(-0.875, -0.485, 0.485, -0.875, 516.978, 283.684)"/><path class="a" d="M2.5,0l.825,2.783L5,5,2.5,4.433,0,5,1.675,2.783Z" transform="matrix(-0.875, -0.485, 0.485, -0.875, 1446.979, 323.684)"/><path class="a" d="M2.5,0l.825,2.783L5,5,2.5,4.433,0,5,1.675,2.783Z" transform="translate(1166.709 401.869) rotate(-105)"/><path class="a" d="M2.5,0l.825,2.783L5,5,2.5,4.433,0,5,1.675,2.783Z" transform="matrix(-0.53, -0.848, 0.848, -0.53, 648.373, 53.391)"/><path class="a" d="M2.5,0l.825,2.783L5,5,2.5,4.433,0,5,1.675,2.783Z" transform="translate(1083.407 180.219) rotate(-91)"/><path class="b" d="M2.5,0l.825,2.783L5,5,2.5,4.433,0,5,1.675,2.783Z" transform="translate(445 174)"/><path class="b" d="M2.5,0l.825,2.783L5,5,2.5,4.433,0,5,1.675,2.783Z" transform="translate(1375 144)"/><path class="b" d="M2.5,0l.825,2.783L5,5,2.5,4.433,0,5,1.675,2.783Z" transform="matrix(0.695, 0.719, -0.719, 0.695, 1490.047, 57.855)"/><path class="b" d="M2.5,0l.825,2.783L5,5,2.5,4.433,0,5,1.675,2.783Z" transform="translate(177 283) rotate(180)"/><path class="b" d="M2.5,0l.825,2.783L5,5,2.5,4.433,0,5,1.675,2.783Z" transform="matrix(-0.875, -0.485, 0.485, -0.875, 409.448, 388.201)"/><path class="b" d="M2.5,0l.825,2.783L5,5,2.5,4.433,0,5,1.675,2.783Z" transform="matrix(-0.53, -0.848, 0.848, -0.53, 659.723, 247.379)"/><path class="b" d="M2.5,0l.825,2.783L5,5,2.5,4.433,0,5,1.675,2.783Z" transform="matrix(-0.53, -0.848, 0.848, -0.53, 1589.723, 262.656)"/><path class="b" d="M2.5,0l.825,2.783L5,5,2.5,4.433,0,5,1.675,2.783Z" transform="translate(911.815 348.43) rotate(-91)"/></g></svg>