<svg xmlns="http://www.w3.org/2000/svg" width="54.608" height="48.849" viewBox="0 0 54.608 48.849"><defs><style>.a{fill:#2484c6;}</style></defs><path class="a" d="M51.409,72.4a3.2,3.2,0,0,0-3.2,3.2v.533a9.079,9.079,0,0,1-7.523,8.932,5.112,5.112,0,0,0,.883-2.878v-.741a5.141,5.141,0,0,0-10.283,0v.741A5.11,5.11,0,0,0,32.128,85a9.081,9.081,0,0,1-7.184-8.868v-.533a3.2,3.2,0,0,0-6.4,0v.533a15.338,15.338,0,0,0,1.29,6.193H12.578V71.58a1.066,1.066,0,0,0-.773-1.025A13.394,13.394,0,0,1,2.133,57.733V57.2a1.067,1.067,0,0,1,2.133,0v.533a11.212,11.212,0,0,0,11.2,11.2H20.6a11.212,11.212,0,0,0,11.2-11.2V57.2a1.067,1.067,0,0,1,2.133,0v.533a13.239,13.239,0,0,1-.878,4.76,1.067,1.067,0,1,0,1.992.764,15.364,15.364,0,0,0,1.019-5.523V57.2a3.2,3.2,0,0,0-6.4,0v.533a9.079,9.079,0,0,1-7.523,8.932,5.112,5.112,0,0,0,.883-2.878v-.741a5.141,5.141,0,1,0-10.283,0v.741a5.109,5.109,0,0,0,.842,2.814A9.081,9.081,0,0,1,6.4,57.733V57.2a3.2,3.2,0,0,0-6.4,0v.533a15.311,15.311,0,0,0,3.184,9.389,15.627,15.627,0,0,0,7.261,5.239V83.387a1.067,1.067,0,0,0,1.067,1.067h.195v17.329a1.067,1.067,0,0,0,2.133,0V84.454h7.142q.35.544.747,1.064c.071.092.144.182.217.272v15.993a1.067,1.067,0,0,0,2.133,0V87.969a15.591,15.591,0,0,0,4.911,2.787v11.026a1.067,1.067,0,0,0,2.133,0V89.975a1.066,1.066,0,0,0-.773-1.025,13.394,13.394,0,0,1-9.671-12.821v-.533a1.067,1.067,0,0,1,2.133,0v.533a11.212,11.212,0,0,0,11.2,11.2h5.133a11.212,11.212,0,0,0,11.2-11.2v-.533a1.067,1.067,0,0,1,2.133,0v.533a13.352,13.352,0,0,1-9.9,12.883,1.066,1.066,0,0,0-.791,1.03v7.723a1.067,1.067,0,0,0,2.133,0V90.838a15.489,15.489,0,0,0,10.687-14.71v-.533A3.2,3.2,0,0,0,51.409,72.4ZM14.875,63.046a3.008,3.008,0,1,1,6.016,0v.741a3.008,3.008,0,0,1-6.016,0ZM39.436,82.182a3.008,3.008,0,0,1-6.016,0v-.741a3.008,3.008,0,0,1,6.016,0Z" transform="translate(0 -54)"/></svg>