<svg xmlns="http://www.w3.org/2000/svg" width="44.704" height="43.086" viewBox="0 0 44.704 43.086"><defs><style>.a{fill:#2484c6;}</style></defs><path class="a" d="M34.693,53.991,43.682,45A3.489,3.489,0,0,0,42,39.133a3.493,3.493,0,0,0-2.574-4.913A3.486,3.486,0,0,0,36.7,29.688a3.493,3.493,0,0,0-4.984-4.165l-.089-.1a6.183,6.183,0,0,0-4.512-1.965H19.844a.927.927,0,0,0-.927.927V25.6a4.209,4.209,0,0,0,.24,1.4A3.492,3.492,0,0,0,14.5,31.331a3.492,3.492,0,0,0-2.723,4.533,3.492,3.492,0,0,0-2.572,4.91,3.492,3.492,0,0,0-1.685,5.872l1.849,1.848-9.1,9.1A.927.927,0,1,0,1.581,58.9l9.188-9.188a3.49,3.49,0,0,0,5.212-3.177c.047,0,.094,0,.141,0a3.489,3.489,0,0,0,3.492-3.49c0-.047,0-.094,0-.141.046,0,.093,0,.139,0a3.489,3.489,0,0,0,3.492-3.49c0-.047,0-.094,0-.141.046,0,.093,0,.139,0a3.49,3.49,0,0,0,2.7-5.7l6.151-6.151a1.638,1.638,0,1,1,2.317,2.317l-.907.907-3.29,3.29a.927.927,0,1,0,1.31,1.311l3.29-3.29a1.639,1.639,0,1,1,2.317,2.317l-.907.907-2.383,2.383a.927.927,0,1,0,1.31,1.311L37.671,36.5a1.638,1.638,0,1,1,2.317,2.317l-1.245,1.245L37.6,41.2a.927.927,0,1,0,1.31,1.311l1.139-1.139a1.639,1.639,0,0,1,2.316,2.318l-8.989,8.989a12.553,12.553,0,0,1-8.447,3.68.926.926,0,0,0-.623.272l-8.3,8.334a.927.927,0,1,0,1.313,1.308l6.108-6.13a8.613,8.613,0,0,0,5.231,1.346l4.78,4.78a.927.927,0,0,0,1.31-1.311l-5.082-5.083a.927.927,0,0,0-.731-.268l-.294.024a6.764,6.764,0,0,1-3.867-.842l.6-.6A14.4,14.4,0,0,0,34.693,53.991ZM13.654,47.839a1.638,1.638,0,0,1-2.317,0l-2.5-2.5a1.639,1.639,0,1,1,2.317-2.317l2.5,2.5A1.641,1.641,0,0,1,13.654,47.839Zm3.628-3.628a1.641,1.641,0,0,1-2.317,0l-2.5-2.5-1.245-1.245a1.639,1.639,0,1,1,2.317-2.317l3.749,3.749h0a1.639,1.639,0,0,1,0,2.317Zm3.628-3.628a1.641,1.641,0,0,1-2.317,0l-4.656-4.656a1.639,1.639,0,0,1,2.317-2.318l2.122,2.122,2.534,2.534h0a1.639,1.639,0,0,1,0,2.317Zm3.628-3.628a1.64,1.64,0,0,1-2.317,0L17.564,32.3h0l-.905-.905a1.639,1.639,0,0,1,2.317-2.317l5.562,5.562a1.639,1.639,0,0,1,0,2.317Zm.244-4.694-2.545-2.545a4.24,4.24,0,0,0,.887.094h.02l2.543-.012a.927.927,0,0,0,0-1.853h0l-2.543.012h-.011A2.353,2.353,0,0,1,20.77,25.6v-.288h6.349a4.324,4.324,0,0,1,3.156,1.374l.038.04Z" transform="translate(0 -23.462)"/></svg>