<svg xmlns="http://www.w3.org/2000/svg" width="49.167" height="49.086" viewBox="0 0 49.167 49.086"><defs><style>.a{fill:#2484c6;}</style></defs><path class="a" d="M46.658,34.469a8.657,8.657,0,0,0-9.216-1.917l-1.383-1.38a3,3,0,0,0,.315-.273l3.452-3.444a3,3,0,0,0,0-4.24h0a3,3,0,0,0-2.288-.871,3.391,3.391,0,0,0,.032-.458A3.319,3.319,0,0,0,34.4,18.569a3.317,3.317,0,0,0-3.538-4.349,3.407,3.407,0,0,0,.022-.382,3.3,3.3,0,0,0-.972-2.349,3.336,3.336,0,0,0-4.7,0L23,13.69l-.171-.17a2.126,2.126,0,0,0-3,0l-.732.73-2.134-2.131A8.573,8.573,0,0,0,7.356.574c-.4.076-1.624.306-1.875,1.241-.245.915.627,1.664,1.046,2.025.042.036,3.445,3.425,3.445,3.425a2.412,2.412,0,0,1,.144,3.251,2.429,2.429,0,0,1-3.263-.143S3.457,6.977,3.42,6.934c-.361-.418-1.113-1.288-2.028-1.042C.458,6.143.227,7.362.151,7.762a8.572,8.572,0,0,0,2.358,7.674,8.657,8.657,0,0,0,9.216,1.917l2.47,2.465a5.958,5.958,0,0,0-.391,2.5c.117,1.932-.907,3.828-3.425,6.338L7.757,31.27a2.368,2.368,0,0,0-2.749.428L1.334,35.363a2.359,2.359,0,0,0,0,3.335L11.479,48.82a2.367,2.367,0,0,0,3.338,0l3.674-3.665a2.363,2.363,0,0,0,.431-2.745l4.462-4.452c1.323-1.319,1.537-1.284,2.938-1.05.236.039.5.084.8.127a6.228,6.228,0,0,0,3.448-.876L32.2,37.783a8.665,8.665,0,0,0-.579,3.5.72.72,0,0,0,.719.69h.031a.72.72,0,0,0,.689-.75,7.192,7.192,0,0,1,.647-3.3.72.72,0,0,0-.145-.812l-11.524-11.5a6.313,6.313,0,0,0,.763-2.745,7.9,7.9,0,0,0,2.987,1.581,5.239,5.239,0,0,0,2.425.121c0,.008,0,.016,0,.024A3.319,3.319,0,0,0,31.381,27.9a3.016,3.016,0,0,0-.13.879,2.992,2.992,0,0,0,3,3,3.014,3.014,0,0,0,.35-.021l2.165,2.16a.72.72,0,0,0,.809.145,7.209,7.209,0,0,1,8.064,1.43,7.132,7.132,0,0,1,1.96,6.387,2.469,2.469,0,0,1-.212.7,3.1,3.1,0,0,1-.551-.541c-.062-.072-3.505-3.515-3.505-3.515a3.874,3.874,0,0,0-5.264-.178.739.739,0,0,0-.069.069,3.856,3.856,0,0,0,.179,5.256l4.063,4.044a2.494,2.494,0,0,1-.7.211,7.134,7.134,0,0,1-7.71-3.748.72.72,0,1,0-1.282.657A8.562,8.562,0,0,0,40.2,49.483a8.713,8.713,0,0,0,1.615-.151c.4-.076,1.624-.306,1.875-1.241.245-.914-.627-1.664-1.046-2.025-.042-.036-3.445-3.425-3.445-3.425a2.21,2.21,0,1,1,3.119-3.108s3.4,3.395,3.432,3.437c.361.418,1.114,1.288,2.028,1.042.935-.251,1.165-1.47,1.241-1.87a8.571,8.571,0,0,0-2.357-7.674ZM32.58,16.188a1.889,1.889,0,0,1,.026,2.635l-2.315,2.31c-.4-.576-2.584-2.745-2.584-2.745l2.2-2.2A1.893,1.893,0,0,1,32.58,16.188Zm-6.357-3.678a1.893,1.893,0,0,1,2.67,0,1.885,1.885,0,0,1,0,2.66l-2.206,2.2L24.02,14.708ZM12.4,15.991a.72.72,0,0,0-.809-.145,7.209,7.209,0,0,1-8.064-1.43A7.132,7.132,0,0,1,1.567,8.03a2.469,2.469,0,0,1,.212-.7,3.1,3.1,0,0,1,.551.541c.062.072,3.505,3.515,3.505,3.515a3.873,3.873,0,0,0,5.264.178.739.739,0,0,0,.069-.069,3.856,3.856,0,0,0-.179-5.256S6.994,2.3,6.926,2.2a2.494,2.494,0,0,1,.7-.211,7.134,7.134,0,0,1,7.836,10,.72.72,0,0,0,.145.811l2.476,2.472L15.4,17.949a5.052,5.052,0,0,0-.478.556Zm16.787,6.243a3.339,3.339,0,0,0-.483.61c-1.534.951-3.96-.1-5.167-1.259l-.15-.149c-1.1-1.1-1.69-1.685-1.745-1.741l0,0-.008-.008-.012-.01a.72.72,0,0,0-1.02,1.015l.014.015a2.73,2.73,0,0,1,.751,1.987,5.57,5.57,0,0,1-1.74,3.77.72.72,0,0,0,1.017,1.02,8.192,8.192,0,0,0,.583-.65L29.5,35.087a4.345,4.345,0,0,1-2.171.521c-.285-.041-.543-.084-.771-.122-1.669-.278-2.417-.321-4.193,1.451l-4.384,4.374L14.359,37.7a.72.72,0,1,0-1.017,1.02l4.13,4.12h0a.919.919,0,0,1,0,1.3L13.8,47.8a.924.924,0,0,1-1.3,0L2.351,37.678a.919.919,0,0,1,0-1.3l3.674-3.666a.924.924,0,0,1,1.3,0l3.633,3.625a.72.72,0,1,0,1.017-1.02L8.856,32.207,11.4,29.672c2.84-2.831,3.99-5.058,3.846-7.444a4.344,4.344,0,0,1,1.17-3.26l4.435-4.425a.691.691,0,0,1,.963,0l.678.677L27.184,19.9l.378.375a11.863,11.863,0,0,1,1.69,1.895Zm2.352,4.229a1.88,1.88,0,0,1-1.335-3.21l2.7-2.7a1.893,1.893,0,0,1,2.67,0h0a1.881,1.881,0,0,1,0,2.658h0l-2.7,2.7a1.872,1.872,0,0,1-1.334.549Zm1.607,3.416a1.56,1.56,0,0,1,0-2.2L36.6,24.236a1.569,1.569,0,0,1,2.212,0h0a1.56,1.56,0,0,1,0,2.2L35.356,29.88a1.567,1.567,0,0,1-2.21,0Z" transform="translate(0 -0.422)"/></svg>