<svg xmlns="http://www.w3.org/2000/svg" width="52.062" height="52.062" viewBox="0 0 52.062 52.062"><defs><style>.a{fill:#2484c6;}</style></defs><path class="a" d="M51.3,50.537H45.148V40.1c3.877-.429,6.915-4.1,6.915-8.54,0-4.371-2.939-7.987-6.724-8.514a7.139,7.139,0,0,0,1.47-3.325.763.763,0,1,0-1.506-.241,5.649,5.649,0,0,1-3.647,4.4,1.386,1.386,0,0,0-.886,1.035,4.663,4.663,0,0,1-2.387,3.359,4.478,4.478,0,0,1-3.514.055,4.655,4.655,0,0,1-1.962-1.488v-3.3l3.332-3.331a.763.763,0,1,0-1.078-1.079L32.907,21.4V16.347a.763.763,0,1,0-1.525,0v3.586l-2.253-2.253a.763.763,0,0,0-1.079,1.079l3.332,3.332v4.76a4.667,4.667,0,0,1-1.961,1.487,4.479,4.479,0,0,1-3.514-.055,4.017,4.017,0,0,1-1.738-1.634c.133-3.371-.842-8.3-2.291-13.018a5.671,5.671,0,0,1,.611-.286,1.594,1.594,0,0,0,1-1.671,3.384,3.384,0,0,1-.024-.4A3.35,3.35,0,0,1,26.017,8.01a1.619,1.619,0,0,0,1.226-1.584,4.9,4.9,0,1,1,9.8.008A1.617,1.617,0,0,0,38.271,8.01,3.357,3.357,0,0,1,40.8,11.67a1.6,1.6,0,0,0,1,1.673,5.669,5.669,0,0,1,3.158,3.119.763.763,0,0,0,1.412-.576,7.2,7.2,0,0,0-4.011-3.962.074.074,0,0,1-.049-.071,4.88,4.88,0,0,0-3.672-5.323.1.1,0,0,1-.067-.1,6.426,6.426,0,1,0-12.852.008.1.1,0,0,1-.067.1,4.872,4.872,0,0,0-3.707,4.74,4.936,4.936,0,0,0,.035.585c.016.132-.47.242-.576.305-.19-.562-.386-1.114-.588-1.652C17.544,1.823,14.265,0,12.091,0c-3.8,0-6.7,5.347-8.464,9.833a.763.763,0,1,0,1.419.559c2.219-5.635,4.787-8.867,7.045-8.867,2.359,0,5.018,3.47,7.3,9.52a49.852,49.852,0,0,1,3.269,14.991c0,6.273-4.332,11.427-9.8,11.869V31.716h0V28.8l3.183-3.183a.763.763,0,1,0-1.079-1.079l-2.1,2.1V23.453a.763.763,0,1,0-1.525,0v5.03h0v1.391l-2.1-2.1a.763.763,0,0,0-1.079,1.079l3.183,3.183v5.874c-5.471-.442-9.8-5.6-9.8-11.869A47.453,47.453,0,0,1,3.884,13.678a.763.763,0,0,0-1.454-.461A48.3,48.3,0,0,0,0,26.036C0,33.154,5.015,39,11.328,39.434v11.1H.763a.763.763,0,1,0,0,1.525H51.3a.763.763,0,1,0,0-1.525Zm-19.918,0H12.853v-11.1c5.483-.381,9.987-4.838,11.076-10.668a5.386,5.386,0,0,0,1.318.89,6.083,6.083,0,0,0,6.134-.688Zm12.241,0H32.907V28.969a6.049,6.049,0,0,0,1.4.785,6.462,6.462,0,0,0,2.323.443,6.923,6.923,0,0,1,.078,1.366c0,4.445,3.038,8.11,6.915,8.54Zm.763-19.5a.763.763,0,0,0-.763.763v4.192h0v2.571c-3.033-.432-5.389-3.406-5.389-7a8.039,8.039,0,0,1,.17-1.649,6.682,6.682,0,0,0,3.846-4.621A7.168,7.168,0,0,0,43.7,24.55c3.7-.477,6.834,2.886,6.834,7.013,0,3.595-2.356,6.568-5.389,7V36.308L47.559,33.9a.763.763,0,0,0-1.079-1.079L45.148,34.15V31.8A.763.763,0,0,0,44.385,31.036Z" transform="translate(0 0)"/></svg>