<svg xmlns="http://www.w3.org/2000/svg" width="41.059" height="37.287" viewBox="0 0 41.059 37.287"><defs><style>.a{fill:#2484c6;}</style></defs><path class="a" d="M16.507,25.58c-3.587-3.585-10.606-4-15.575-4A.932.932,0,0,0,0,22.511C0,27.48.414,34.5,4,38.086a8.682,8.682,0,0,0,6.136,2.191,9.3,9.3,0,0,0,6.371-2.192C19.179,35.412,19.669,28.74,16.507,25.58ZM15.189,36.768c-1.995,1.993-7.534,2.334-9.868,0-2.9-2.9-3.4-8.777-3.451-13.319C6.411,23.5,12.294,24,15.189,26.9,17.523,29.234,17.182,34.775,15.189,36.768Z" transform="translate(0 -21.579)"/><g transform="translate(22.36 3.688)"><path class="a" d="M273.628,63.776c-4.969,0-11.988.414-15.575,4-3.162,3.16-2.672,9.833,0,12.5a9.3,9.3,0,0,0,6.369,2.191,8.691,8.691,0,0,0,6.137-2.189c3.585-3.587,4-10.606,4-15.575A.932.932,0,0,0,273.628,63.776Zm-4.391,15.187c-2.334,2.334-7.875,1.993-9.868,0s-2.334-7.534,0-9.868c2.9-2.9,8.777-3.4,13.319-3.451C272.635,70.187,272.133,76.07,269.238,78.963Z" transform="translate(-255.862 -63.776)"/></g><g transform="translate(7.457 7.459)"><g transform="translate(0 0)"><path class="a" d="M111.265,111.226a1.007,1.007,0,0,0-1.314-.412c-7.15,3.361-10.662,9.223-12.258,15.249-1.974-12.812-7.685-16.718-10.107-18.375a5.852,5.852,0,0,1-.667-.487.932.932,0,0,0-1.318,1.318,7.5,7.5,0,0,0,.934.707c2.729,1.866,9.98,6.827,9.98,26.6a.932.932,0,0,0,1.864,0c0-7.989,2.146-18.52,12.366-23.323,0,0,.151-.073.151-.073A.864.864,0,0,0,111.265,111.226Z" transform="translate(-85.328 -106.928)"/></g></g></svg>