<svg xmlns="http://www.w3.org/2000/svg" width="378.047" height="186.001" viewBox="0 0 378.047 186.001">
  <g id="Group_482" data-name="Group 482" transform="translate(-1327 -937.999)">
    <path id="Path_693" data-name="Path 693" d="M84.962,169.713a38.418,38.418,0,0,1,38.365-36.41c1.168,0,2.321.061,3.462.163a51.043,51.043,0,0,1,88.235-.042c.963-.072,1.932-.121,2.913-.121A38.418,38.418,0,0,1,256.3,169.712" transform="translate(1242.038 829.926)" fill="#f2f2f2" opacity="0.164"/>
    <path id="Path_694" data-name="Path 694" d="M155.988,390.941a67,67,0,0,1,66.909-63.5c2.036,0,4.047.106,6.037.284a89.02,89.02,0,0,1,153.883-.073c1.679-.126,3.369-.211,5.08-.211a67,67,0,0,1,66.909,63.5" transform="translate(1213.335 733.059)" fill="#f2f2f2" opacity="0.292"/>
    <path id="Path_695" data-name="Path 695" d="M831.938,220.046a33.42,33.42,0,0,1,33.373-31.673c1.016,0,2.019.053,3.011.142a44.4,44.4,0,0,1,76.755-.036c.837-.063,1.68-.105,2.534-.105a33.42,33.42,0,0,1,33.373,31.673" transform="translate(724.063 783.764)" fill="#f2f2f2" opacity="0.399"/>
  </g>
</svg>
